<mxfile host="app.diagrams.net" agent="Mozilla/5.0 (Windows NT 10.0; Win64; x64) AppleWebKit/537.36 (KHTML, like Gecko) Chrome/136.0.0.0 Safari/537.36" version="27.0.2">
  <diagram name="Page-1" id="_0K-1rbJuzYU6AxbBlMl">
    <mxGraphModel dx="3565" dy="3027" grid="1" gridSize="10" guides="1" tooltips="1" connect="1" arrows="1" fold="1" page="1" pageScale="1" pageWidth="827" pageHeight="1169" math="0" shadow="0">
      <root>
        <mxCell id="0" />
        <mxCell id="1" parent="0" />
        <mxCell id="BF_jYvzkxZM9qKAuG5mS-1" value="&lt;div style=&quot;color: #f8f8f2;background-color: #272822;font-family: Consolas, Consolas, &#39;Courier New&#39;, monospace;font-weight: normal;font-size: 14px;line-height: 19px;white-space: pre;&quot;&gt;&lt;br&gt;&lt;div&gt;&lt;span style=&quot;color: #66d9ef;font-style: italic;&quot;&gt;void&lt;/span&gt;&lt;span style=&quot;color: #f8f8f2;&quot;&gt; &lt;/span&gt;&lt;span style=&quot;color: #a6e22e;&quot;&gt;merge_sort&lt;/span&gt;&lt;span style=&quot;color: #f8f8f2;&quot;&gt;(&lt;/span&gt;&lt;span style=&quot;color: #a6e22e;text-decoration: underline;&quot;&gt;vector&lt;/span&gt;&lt;span style=&quot;color: #f8f8f2;&quot;&gt;&amp;lt;&lt;/span&gt;&lt;span style=&quot;color: #66d9ef;font-style: italic;&quot;&gt;int&lt;/span&gt;&lt;span style=&quot;color: #f8f8f2;&quot;&gt;&amp;gt; &lt;/span&gt;&lt;span style=&quot;color: #f92672;&quot;&gt;&amp;amp;&lt;/span&gt;&lt;span style=&quot;color: #fd971f;font-style: italic;&quot;&gt;a&lt;/span&gt;&lt;span style=&quot;color: #f8f8f2;&quot;&gt;, &lt;/span&gt;&lt;span style=&quot;color: #66d9ef;font-style: italic;&quot;&gt;int&lt;/span&gt;&lt;span style=&quot;color: #f8f8f2;&quot;&gt; &lt;/span&gt;&lt;span style=&quot;color: #fd971f;font-style: italic;&quot;&gt;low&lt;/span&gt;&lt;span style=&quot;color: #f8f8f2;&quot;&gt;, &lt;/span&gt;&lt;span style=&quot;color: #66d9ef;font-style: italic;&quot;&gt;int&lt;/span&gt;&lt;span style=&quot;color: #f8f8f2;&quot;&gt; &lt;/span&gt;&lt;span style=&quot;color: #fd971f;font-style: italic;&quot;&gt;high&lt;/span&gt;&lt;span style=&quot;color: #f8f8f2;&quot;&gt;){&lt;/span&gt;&lt;/div&gt;&lt;br&gt;&lt;div&gt;&lt;span style=&quot;color: #f8f8f2;&quot;&gt;&amp;nbsp; &amp;nbsp; &lt;/span&gt;&lt;span style=&quot;color: #f92672;&quot;&gt;if&lt;/span&gt;&lt;span style=&quot;color: #f8f8f2;&quot;&gt;(&lt;/span&gt;&lt;span style=&quot;color: #fd971f;font-style: italic;&quot;&gt;low&lt;/span&gt;&lt;span style=&quot;color: #f8f8f2;&quot;&gt; &lt;/span&gt;&lt;span style=&quot;color: #f92672;&quot;&gt;&amp;gt;=&lt;/span&gt;&lt;span style=&quot;color: #f8f8f2;&quot;&gt; &lt;/span&gt;&lt;span style=&quot;color: #fd971f;font-style: italic;&quot;&gt;high&lt;/span&gt;&lt;span style=&quot;color: #f8f8f2;&quot;&gt;)&lt;/span&gt;&lt;/div&gt;&lt;div&gt;&lt;span style=&quot;color: #f8f8f2;&quot;&gt;&amp;nbsp; &amp;nbsp; {&lt;/span&gt;&lt;/div&gt;&lt;div&gt;&lt;span style=&quot;color: #f8f8f2;&quot;&gt;&amp;nbsp; &amp;nbsp; &amp;nbsp; &amp;nbsp; &lt;/span&gt;&lt;span style=&quot;color: #f92672;&quot;&gt;return&lt;/span&gt;&lt;span style=&quot;color: #f8f8f2;&quot;&gt;;&lt;/span&gt;&lt;/div&gt;&lt;div&gt;&lt;span style=&quot;color: #f8f8f2;&quot;&gt;&amp;nbsp; &amp;nbsp; }&lt;/span&gt;&lt;/div&gt;&lt;div&gt;&lt;span style=&quot;color: #f8f8f2;&quot;&gt;&amp;nbsp; &amp;nbsp; &lt;/span&gt;&lt;/div&gt;&lt;div&gt;&lt;span style=&quot;color: #f8f8f2;&quot;&gt;&amp;nbsp; &amp;nbsp; &lt;/span&gt;&lt;span style=&quot;color: #66d9ef;font-style: italic;&quot;&gt;int&lt;/span&gt;&lt;span style=&quot;color: #f8f8f2;&quot;&gt; &lt;/span&gt;&lt;span style=&quot;color: #f8f8f2;&quot;&gt;mid&lt;/span&gt;&lt;span style=&quot;color: #f8f8f2;&quot;&gt; &lt;/span&gt;&lt;span style=&quot;color: #f92672;&quot;&gt;=&lt;/span&gt;&lt;span style=&quot;color: #f8f8f2;&quot;&gt; (&lt;/span&gt;&lt;span style=&quot;color: #fd971f;font-style: italic;&quot;&gt;low&lt;/span&gt;&lt;span style=&quot;color: #f92672;&quot;&gt;+&lt;/span&gt;&lt;span style=&quot;color: #fd971f;font-style: italic;&quot;&gt;high&lt;/span&gt;&lt;span style=&quot;color: #f8f8f2;&quot;&gt;) &lt;/span&gt;&lt;span style=&quot;color: #f92672;&quot;&gt;/&lt;/span&gt;&lt;span style=&quot;color: #f8f8f2;&quot;&gt; &lt;/span&gt;&lt;span style=&quot;color: #ae81ff;&quot;&gt;2&lt;/span&gt;&lt;span style=&quot;color: #f8f8f2;&quot;&gt;;&lt;/span&gt;&lt;/div&gt;&lt;br&gt;&lt;div&gt;&lt;span style=&quot;color: #f8f8f2;&quot;&gt;&amp;nbsp; &amp;nbsp; &lt;/span&gt;&lt;span style=&quot;color: #a6e22e;&quot;&gt;merge_sort&lt;/span&gt;&lt;span style=&quot;color: #f8f8f2;&quot;&gt;(&lt;/span&gt;&lt;span style=&quot;color: #fd971f;font-style: italic;&quot;&gt;a&lt;/span&gt;&lt;span style=&quot;color: #f8f8f2;&quot;&gt;, &lt;/span&gt;&lt;span style=&quot;color: #fd971f;font-style: italic;&quot;&gt;low&lt;/span&gt;&lt;span style=&quot;color: #f8f8f2;&quot;&gt;, &lt;/span&gt;&lt;span style=&quot;color: #f8f8f2;&quot;&gt;mid&lt;/span&gt;&lt;span style=&quot;color: #f8f8f2;&quot;&gt;);&lt;/span&gt;&lt;/div&gt;&lt;br&gt;&lt;div&gt;&lt;span style=&quot;color: #f8f8f2;&quot;&gt;&amp;nbsp; &amp;nbsp; &lt;/span&gt;&lt;span style=&quot;color: #a6e22e;&quot;&gt;merge_sort&lt;/span&gt;&lt;span style=&quot;color: #f8f8f2;&quot;&gt;(&lt;/span&gt;&lt;span style=&quot;color: #fd971f;font-style: italic;&quot;&gt;a&lt;/span&gt;&lt;span style=&quot;color: #f8f8f2;&quot;&gt;, &lt;/span&gt;&lt;span style=&quot;color: #f8f8f2;&quot;&gt;mid&lt;/span&gt;&lt;span style=&quot;color: #f92672;&quot;&gt;+&lt;/span&gt;&lt;span style=&quot;color: #ae81ff;&quot;&gt;1&lt;/span&gt;&lt;span style=&quot;color: #f8f8f2;&quot;&gt;, &lt;/span&gt;&lt;span style=&quot;color: #fd971f;font-style: italic;&quot;&gt;high&lt;/span&gt;&lt;span style=&quot;color: #f8f8f2;&quot;&gt;);&lt;/span&gt;&lt;/div&gt;&lt;br&gt;&lt;div&gt;&lt;span style=&quot;color: #f8f8f2;&quot;&gt;&amp;nbsp; &amp;nbsp; &lt;/span&gt;&lt;span style=&quot;color: #a6e22e;&quot;&gt;merge&lt;/span&gt;&lt;span style=&quot;color: #f8f8f2;&quot;&gt;(&lt;/span&gt;&lt;span style=&quot;color: #fd971f;font-style: italic;&quot;&gt;a&lt;/span&gt;&lt;span style=&quot;color: #f8f8f2;&quot;&gt;, &lt;/span&gt;&lt;span style=&quot;color: #fd971f;font-style: italic;&quot;&gt;low&lt;/span&gt;&lt;span style=&quot;color: #f8f8f2;&quot;&gt;, &lt;/span&gt;&lt;span style=&quot;color: #f8f8f2;&quot;&gt;mid&lt;/span&gt;&lt;span style=&quot;color: #f8f8f2;&quot;&gt;, &lt;/span&gt;&lt;span style=&quot;color: #fd971f;font-style: italic;&quot;&gt;high&lt;/span&gt;&lt;span style=&quot;color: #f8f8f2;&quot;&gt;);&lt;/span&gt;&lt;/div&gt;&lt;div&gt;&lt;span style=&quot;color: #f8f8f2;&quot;&gt;}&lt;/span&gt;&lt;/div&gt;&lt;br&gt;&lt;br&gt;&lt;/div&gt;" style="text;whiteSpace=wrap;html=1;" vertex="1" parent="1">
          <mxGeometry x="90" y="30" width="310" height="330" as="geometry" />
        </mxCell>
        <mxCell id="BF_jYvzkxZM9qKAuG5mS-7" style="edgeStyle=orthogonalEdgeStyle;rounded=0;orthogonalLoop=1;jettySize=auto;html=1;" edge="1" parent="1" source="BF_jYvzkxZM9qKAuG5mS-2" target="BF_jYvzkxZM9qKAuG5mS-6">
          <mxGeometry relative="1" as="geometry" />
        </mxCell>
        <mxCell id="BF_jYvzkxZM9qKAuG5mS-2" value="&lt;div style=&quot;color: #f8f8f2;background-color: #272822;font-family: Consolas, Consolas, &#39;Courier New&#39;, monospace;font-weight: normal;font-size: 14px;line-height: 19px;white-space: pre;&quot;&gt;&lt;br&gt;&lt;div&gt;&lt;span style=&quot;color: #66d9ef;font-style: italic;&quot;&gt;void&lt;/span&gt;&lt;span style=&quot;color: #f8f8f2;&quot;&gt; &lt;/span&gt;&lt;span style=&quot;color: #a6e22e;&quot;&gt;merge_sort&lt;/span&gt;&lt;span style=&quot;color: #f8f8f2;&quot;&gt;(&lt;/span&gt;&lt;span style=&quot;color: #a6e22e;text-decoration: underline;&quot;&gt;vector&lt;/span&gt;&lt;span style=&quot;color: #f8f8f2;&quot;&gt;&amp;lt;&lt;/span&gt;&lt;span style=&quot;color: #66d9ef;font-style: italic;&quot;&gt;int&lt;/span&gt;&lt;span style=&quot;color: #f8f8f2;&quot;&gt;&amp;gt; &lt;/span&gt;&lt;span style=&quot;color: #f92672;&quot;&gt;&amp;amp;&lt;/span&gt;&lt;span style=&quot;color: #fd971f;font-style: italic;&quot;&gt;a&lt;/span&gt;&lt;span style=&quot;color: #f8f8f2;&quot;&gt;, &lt;/span&gt;&lt;span style=&quot;color: #66d9ef;font-style: italic;&quot;&gt;int&lt;/span&gt;&lt;span style=&quot;color: #f8f8f2;&quot;&gt; &lt;/span&gt;&lt;span style=&quot;color: #fd971f;font-style: italic;&quot;&gt;low&lt;/span&gt;&lt;span style=&quot;color: #f8f8f2;&quot;&gt;, &lt;/span&gt;&lt;span style=&quot;color: #66d9ef;font-style: italic;&quot;&gt;int&lt;/span&gt;&lt;span style=&quot;color: #f8f8f2;&quot;&gt; &lt;/span&gt;&lt;span style=&quot;color: #fd971f;font-style: italic;&quot;&gt;high&lt;/span&gt;&lt;span style=&quot;color: #f8f8f2;&quot;&gt;){&lt;/span&gt;&lt;/div&gt;&lt;br&gt;&lt;div&gt;&lt;span style=&quot;color: #f8f8f2;&quot;&gt;&amp;nbsp; &amp;nbsp; &lt;/span&gt;&lt;span style=&quot;color: #f92672;&quot;&gt;if&lt;/span&gt;&lt;span style=&quot;color: #f8f8f2;&quot;&gt;(&lt;/span&gt;&lt;span style=&quot;color: #fd971f;font-style: italic;&quot;&gt;low&lt;/span&gt;&lt;span style=&quot;color: #f8f8f2;&quot;&gt; &lt;/span&gt;&lt;span style=&quot;color: #f92672;&quot;&gt;&amp;gt;=&lt;/span&gt;&lt;span style=&quot;color: #f8f8f2;&quot;&gt; &lt;/span&gt;&lt;span style=&quot;color: #fd971f;font-style: italic;&quot;&gt;high&lt;/span&gt;&lt;span style=&quot;color: #f8f8f2;&quot;&gt;)&lt;/span&gt;&lt;/div&gt;&lt;div&gt;&lt;span style=&quot;color: #f8f8f2;&quot;&gt;&amp;nbsp; &amp;nbsp; {&lt;/span&gt;&lt;/div&gt;&lt;div&gt;&lt;span style=&quot;color: #f8f8f2;&quot;&gt;&amp;nbsp; &amp;nbsp; &amp;nbsp; &amp;nbsp; &lt;/span&gt;&lt;span style=&quot;color: #f92672;&quot;&gt;return&lt;/span&gt;&lt;span style=&quot;color: #f8f8f2;&quot;&gt;;&lt;/span&gt;&lt;/div&gt;&lt;div&gt;&lt;span style=&quot;color: #f8f8f2;&quot;&gt;&amp;nbsp; &amp;nbsp; }&lt;/span&gt;&lt;/div&gt;&lt;div&gt;&lt;span style=&quot;color: #f8f8f2;&quot;&gt;&amp;nbsp; &amp;nbsp; &lt;/span&gt;&lt;/div&gt;&lt;div&gt;&lt;span style=&quot;color: #f8f8f2;&quot;&gt;&amp;nbsp; &amp;nbsp; &lt;/span&gt;&lt;span style=&quot;color: #66d9ef;font-style: italic;&quot;&gt;int&lt;/span&gt;&lt;span style=&quot;color: #f8f8f2;&quot;&gt; &lt;/span&gt;&lt;span style=&quot;color: #f8f8f2;&quot;&gt;mid&lt;/span&gt;&lt;span style=&quot;color: #f8f8f2;&quot;&gt; &lt;/span&gt;&lt;span style=&quot;color: #f92672;&quot;&gt;=&lt;/span&gt;&lt;span style=&quot;color: #f8f8f2;&quot;&gt; (&lt;/span&gt;&lt;span style=&quot;color: #fd971f;font-style: italic;&quot;&gt;low&lt;/span&gt;&lt;span style=&quot;color: #f92672;&quot;&gt;+&lt;/span&gt;&lt;span style=&quot;color: #fd971f;font-style: italic;&quot;&gt;high&lt;/span&gt;&lt;span style=&quot;color: #f8f8f2;&quot;&gt;) &lt;/span&gt;&lt;span style=&quot;color: #f92672;&quot;&gt;/&lt;/span&gt;&lt;span style=&quot;color: #f8f8f2;&quot;&gt; &lt;/span&gt;&lt;span style=&quot;color: #ae81ff;&quot;&gt;2&lt;/span&gt;&lt;span style=&quot;color: #f8f8f2;&quot;&gt;;&lt;/span&gt;&lt;/div&gt;&lt;br&gt;&lt;div&gt;&lt;span style=&quot;color: #f8f8f2;&quot;&gt;&amp;nbsp; &amp;nbsp; &lt;/span&gt;&lt;span style=&quot;color: #a6e22e;&quot;&gt;merge_sort&lt;/span&gt;&lt;span style=&quot;color: #f8f8f2;&quot;&gt;(&lt;/span&gt;&lt;span style=&quot;color: #fd971f;font-style: italic;&quot;&gt;a&lt;/span&gt;&lt;span style=&quot;color: #f8f8f2;&quot;&gt;, &lt;/span&gt;&lt;span style=&quot;color: #fd971f;font-style: italic;&quot;&gt;low&lt;/span&gt;&lt;span style=&quot;color: #f8f8f2;&quot;&gt;, &lt;/span&gt;&lt;span style=&quot;color: #f8f8f2;&quot;&gt;mid&lt;/span&gt;&lt;span style=&quot;color: #f8f8f2;&quot;&gt;);&lt;/span&gt;&lt;/div&gt;&lt;br&gt;&lt;div&gt;&lt;span style=&quot;color: #f8f8f2;&quot;&gt;&amp;nbsp; &amp;nbsp; &lt;/span&gt;&lt;span style=&quot;color: #a6e22e;&quot;&gt;merge_sort&lt;/span&gt;&lt;span style=&quot;color: #f8f8f2;&quot;&gt;(&lt;/span&gt;&lt;span style=&quot;color: #fd971f;font-style: italic;&quot;&gt;a&lt;/span&gt;&lt;span style=&quot;color: #f8f8f2;&quot;&gt;, &lt;/span&gt;&lt;span style=&quot;color: #f8f8f2;&quot;&gt;mid&lt;/span&gt;&lt;span style=&quot;color: #f92672;&quot;&gt;+&lt;/span&gt;&lt;span style=&quot;color: #ae81ff;&quot;&gt;1&lt;/span&gt;&lt;span style=&quot;color: #f8f8f2;&quot;&gt;, &lt;/span&gt;&lt;span style=&quot;color: #fd971f;font-style: italic;&quot;&gt;high&lt;/span&gt;&lt;span style=&quot;color: #f8f8f2;&quot;&gt;);&lt;/span&gt;&lt;/div&gt;&lt;br&gt;&lt;div&gt;&lt;span style=&quot;color: #f8f8f2;&quot;&gt;&amp;nbsp; &amp;nbsp; &lt;/span&gt;&lt;span style=&quot;color: #a6e22e;&quot;&gt;merge&lt;/span&gt;&lt;span style=&quot;color: #f8f8f2;&quot;&gt;(&lt;/span&gt;&lt;span style=&quot;color: #fd971f;font-style: italic;&quot;&gt;a&lt;/span&gt;&lt;span style=&quot;color: #f8f8f2;&quot;&gt;, &lt;/span&gt;&lt;span style=&quot;color: #fd971f;font-style: italic;&quot;&gt;low&lt;/span&gt;&lt;span style=&quot;color: #f8f8f2;&quot;&gt;, &lt;/span&gt;&lt;span style=&quot;color: #f8f8f2;&quot;&gt;mid&lt;/span&gt;&lt;span style=&quot;color: #f8f8f2;&quot;&gt;, &lt;/span&gt;&lt;span style=&quot;color: #fd971f;font-style: italic;&quot;&gt;high&lt;/span&gt;&lt;span style=&quot;color: #f8f8f2;&quot;&gt;);&lt;/span&gt;&lt;/div&gt;&lt;div&gt;&lt;span style=&quot;color: #f8f8f2;&quot;&gt;}&lt;/span&gt;&lt;/div&gt;&lt;br&gt;&lt;br&gt;&lt;/div&gt;" style="text;whiteSpace=wrap;html=1;" vertex="1" parent="1">
          <mxGeometry x="280" y="430" width="310" height="330" as="geometry" />
        </mxCell>
        <mxCell id="BF_jYvzkxZM9qKAuG5mS-3" value="&lt;div style=&quot;color: #f8f8f2;background-color: #272822;font-family: Consolas, Consolas, &#39;Courier New&#39;, monospace;font-weight: normal;font-size: 14px;line-height: 19px;white-space: pre;&quot;&gt;&lt;br&gt;&lt;div&gt;&lt;span style=&quot;color: #66d9ef;font-style: italic;&quot;&gt;void&lt;/span&gt;&lt;span style=&quot;color: #f8f8f2;&quot;&gt; &lt;/span&gt;&lt;span style=&quot;color: #a6e22e;&quot;&gt;merge_sort&lt;/span&gt;&lt;span style=&quot;color: #f8f8f2;&quot;&gt;(&lt;/span&gt;&lt;span style=&quot;color: #a6e22e;text-decoration: underline;&quot;&gt;vector&lt;/span&gt;&lt;span style=&quot;color: #f8f8f2;&quot;&gt;&amp;lt;&lt;/span&gt;&lt;span style=&quot;color: #66d9ef;font-style: italic;&quot;&gt;int&lt;/span&gt;&lt;span style=&quot;color: #f8f8f2;&quot;&gt;&amp;gt; &lt;/span&gt;&lt;span style=&quot;color: #f92672;&quot;&gt;&amp;amp;&lt;/span&gt;&lt;span style=&quot;color: #fd971f;font-style: italic;&quot;&gt;a&lt;/span&gt;&lt;span style=&quot;color: #f8f8f2;&quot;&gt;, &lt;/span&gt;&lt;span style=&quot;color: #66d9ef;font-style: italic;&quot;&gt;int&lt;/span&gt;&lt;span style=&quot;color: #f8f8f2;&quot;&gt; &lt;/span&gt;&lt;span style=&quot;color: #fd971f;font-style: italic;&quot;&gt;low&lt;/span&gt;&lt;span style=&quot;color: #f8f8f2;&quot;&gt;, &lt;/span&gt;&lt;span style=&quot;color: #66d9ef;font-style: italic;&quot;&gt;int&lt;/span&gt;&lt;span style=&quot;color: #f8f8f2;&quot;&gt; &lt;/span&gt;&lt;span style=&quot;color: #fd971f;font-style: italic;&quot;&gt;high&lt;/span&gt;&lt;span style=&quot;color: #f8f8f2;&quot;&gt;){&lt;/span&gt;&lt;/div&gt;&lt;br&gt;&lt;div&gt;&lt;span style=&quot;color: #f8f8f2;&quot;&gt;&amp;nbsp; &amp;nbsp; &lt;/span&gt;&lt;span style=&quot;color: #f92672;&quot;&gt;if&lt;/span&gt;&lt;span style=&quot;color: #f8f8f2;&quot;&gt;(&lt;/span&gt;&lt;span style=&quot;color: #fd971f;font-style: italic;&quot;&gt;low&lt;/span&gt;&lt;span style=&quot;color: #f8f8f2;&quot;&gt; &lt;/span&gt;&lt;span style=&quot;color: #f92672;&quot;&gt;&amp;gt;=&lt;/span&gt;&lt;span style=&quot;color: #f8f8f2;&quot;&gt; &lt;/span&gt;&lt;span style=&quot;color: #fd971f;font-style: italic;&quot;&gt;high&lt;/span&gt;&lt;span style=&quot;color: #f8f8f2;&quot;&gt;)&lt;/span&gt;&lt;/div&gt;&lt;div&gt;&lt;span style=&quot;color: #f8f8f2;&quot;&gt;&amp;nbsp; &amp;nbsp; {&lt;/span&gt;&lt;/div&gt;&lt;div&gt;&lt;span style=&quot;color: #f8f8f2;&quot;&gt;&amp;nbsp; &amp;nbsp; &amp;nbsp; &amp;nbsp; &lt;/span&gt;&lt;span style=&quot;color: #f92672;&quot;&gt;return&lt;/span&gt;&lt;span style=&quot;color: #f8f8f2;&quot;&gt;;&lt;/span&gt;&lt;/div&gt;&lt;div&gt;&lt;span style=&quot;color: #f8f8f2;&quot;&gt;&amp;nbsp; &amp;nbsp; }&lt;/span&gt;&lt;/div&gt;&lt;div&gt;&lt;span style=&quot;color: #f8f8f2;&quot;&gt;&amp;nbsp; &amp;nbsp; &lt;/span&gt;&lt;/div&gt;&lt;div&gt;&lt;span style=&quot;color: #f8f8f2;&quot;&gt;&amp;nbsp; &amp;nbsp; &lt;/span&gt;&lt;span style=&quot;color: #66d9ef;font-style: italic;&quot;&gt;int&lt;/span&gt;&lt;span style=&quot;color: #f8f8f2;&quot;&gt; &lt;/span&gt;&lt;span style=&quot;color: #f8f8f2;&quot;&gt;mid&lt;/span&gt;&lt;span style=&quot;color: #f8f8f2;&quot;&gt; &lt;/span&gt;&lt;span style=&quot;color: #f92672;&quot;&gt;=&lt;/span&gt;&lt;span style=&quot;color: #f8f8f2;&quot;&gt; (&lt;/span&gt;&lt;span style=&quot;color: #fd971f;font-style: italic;&quot;&gt;low&lt;/span&gt;&lt;span style=&quot;color: #f92672;&quot;&gt;+&lt;/span&gt;&lt;span style=&quot;color: #fd971f;font-style: italic;&quot;&gt;high&lt;/span&gt;&lt;span style=&quot;color: #f8f8f2;&quot;&gt;) &lt;/span&gt;&lt;span style=&quot;color: #f92672;&quot;&gt;/&lt;/span&gt;&lt;span style=&quot;color: #f8f8f2;&quot;&gt; &lt;/span&gt;&lt;span style=&quot;color: #ae81ff;&quot;&gt;2&lt;/span&gt;&lt;span style=&quot;color: #f8f8f2;&quot;&gt;;&lt;/span&gt;&lt;/div&gt;&lt;br&gt;&lt;div&gt;&lt;span style=&quot;color: #f8f8f2;&quot;&gt;&amp;nbsp; &amp;nbsp; &lt;/span&gt;&lt;span style=&quot;color: #a6e22e;&quot;&gt;merge_sort&lt;/span&gt;&lt;span style=&quot;color: #f8f8f2;&quot;&gt;(&lt;/span&gt;&lt;span style=&quot;color: #fd971f;font-style: italic;&quot;&gt;a&lt;/span&gt;&lt;span style=&quot;color: #f8f8f2;&quot;&gt;, &lt;/span&gt;&lt;span style=&quot;color: #fd971f;font-style: italic;&quot;&gt;low&lt;/span&gt;&lt;span style=&quot;color: #f8f8f2;&quot;&gt;, &lt;/span&gt;&lt;span style=&quot;color: #f8f8f2;&quot;&gt;mid&lt;/span&gt;&lt;span style=&quot;color: #f8f8f2;&quot;&gt;);&lt;/span&gt;&lt;/div&gt;&lt;br&gt;&lt;div&gt;&lt;span style=&quot;color: #f8f8f2;&quot;&gt;&amp;nbsp; &amp;nbsp; &lt;/span&gt;&lt;span style=&quot;color: #a6e22e;&quot;&gt;merge_sort&lt;/span&gt;&lt;span style=&quot;color: #f8f8f2;&quot;&gt;(&lt;/span&gt;&lt;span style=&quot;color: #fd971f;font-style: italic;&quot;&gt;a&lt;/span&gt;&lt;span style=&quot;color: #f8f8f2;&quot;&gt;, &lt;/span&gt;&lt;span style=&quot;color: #f8f8f2;&quot;&gt;mid&lt;/span&gt;&lt;span style=&quot;color: #f92672;&quot;&gt;+&lt;/span&gt;&lt;span style=&quot;color: #ae81ff;&quot;&gt;1&lt;/span&gt;&lt;span style=&quot;color: #f8f8f2;&quot;&gt;, &lt;/span&gt;&lt;span style=&quot;color: #fd971f;font-style: italic;&quot;&gt;high&lt;/span&gt;&lt;span style=&quot;color: #f8f8f2;&quot;&gt;);&lt;/span&gt;&lt;/div&gt;&lt;br&gt;&lt;div&gt;&lt;span style=&quot;color: #f8f8f2;&quot;&gt;&amp;nbsp; &amp;nbsp; &lt;/span&gt;&lt;span style=&quot;color: #a6e22e;&quot;&gt;merge&lt;/span&gt;&lt;span style=&quot;color: #f8f8f2;&quot;&gt;(&lt;/span&gt;&lt;span style=&quot;color: #fd971f;font-style: italic;&quot;&gt;a&lt;/span&gt;&lt;span style=&quot;color: #f8f8f2;&quot;&gt;, &lt;/span&gt;&lt;span style=&quot;color: #fd971f;font-style: italic;&quot;&gt;low&lt;/span&gt;&lt;span style=&quot;color: #f8f8f2;&quot;&gt;, &lt;/span&gt;&lt;span style=&quot;color: #f8f8f2;&quot;&gt;mid&lt;/span&gt;&lt;span style=&quot;color: #f8f8f2;&quot;&gt;, &lt;/span&gt;&lt;span style=&quot;color: #fd971f;font-style: italic;&quot;&gt;high&lt;/span&gt;&lt;span style=&quot;color: #f8f8f2;&quot;&gt;);&lt;/span&gt;&lt;/div&gt;&lt;div&gt;&lt;span style=&quot;color: #f8f8f2;&quot;&gt;}&lt;/span&gt;&lt;/div&gt;&lt;br&gt;&lt;br&gt;&lt;/div&gt;" style="text;whiteSpace=wrap;html=1;" vertex="1" parent="1">
          <mxGeometry x="740" y="160" width="310" height="330" as="geometry" />
        </mxCell>
        <mxCell id="BF_jYvzkxZM9qKAuG5mS-4" value="&lt;div style=&quot;color: rgb(248, 248, 242); background-color: rgb(39, 40, 34); font-family: Consolas, Consolas, &amp;quot;Courier New&amp;quot;, monospace; font-size: 14px; line-height: 19px; white-space-collapse: preserve;&quot;&gt;&lt;span style=&quot;color: #88846f;&quot;&gt;{38, 27, 43, 3, 9, 82, 10};&lt;/span&gt;&lt;/div&gt;" style="text;html=1;align=center;verticalAlign=middle;resizable=0;points=[];autosize=1;strokeColor=none;fillColor=none;" vertex="1" parent="1">
          <mxGeometry x="160" width="230" height="30" as="geometry" />
        </mxCell>
        <mxCell id="BF_jYvzkxZM9qKAuG5mS-5" value="&lt;div style=&quot;color: rgb(248, 248, 242); background-color: rgb(39, 40, 34); font-family: Consolas, Consolas, &amp;quot;Courier New&amp;quot;, monospace; font-size: 14px; line-height: 19px; white-space-collapse: preserve;&quot;&gt;&lt;span style=&quot;color: rgb(136, 132, 111);&quot;&gt;{38, 27, 43, 3};&lt;/span&gt;&lt;/div&gt;" style="text;html=1;align=center;verticalAlign=middle;resizable=0;points=[];autosize=1;strokeColor=none;fillColor=none;" vertex="1" parent="1">
          <mxGeometry x="320" y="220" width="150" height="30" as="geometry" />
        </mxCell>
        <mxCell id="BF_jYvzkxZM9qKAuG5mS-6" value="&lt;div style=&quot;color: rgb(248, 248, 242); background-color: rgb(39, 40, 34); font-family: Consolas, Consolas, &amp;quot;Courier New&amp;quot;, monospace; font-size: 14px; line-height: 19px; white-space-collapse: preserve;&quot;&gt;&lt;span style=&quot;color: rgb(136, 132, 111);&quot;&gt;{ 9, 82, 10};&lt;/span&gt;&lt;/div&gt;" style="text;html=1;align=center;verticalAlign=middle;resizable=0;points=[];autosize=1;strokeColor=none;fillColor=none;" vertex="1" parent="1">
          <mxGeometry x="330" y="260" width="120" height="30" as="geometry" />
        </mxCell>
        <mxCell id="BF_jYvzkxZM9qKAuG5mS-8" style="edgeStyle=orthogonalEdgeStyle;rounded=0;orthogonalLoop=1;jettySize=auto;html=1;entryX=1.258;entryY=0.606;entryDx=0;entryDy=0;entryPerimeter=0;" edge="1" parent="1" source="BF_jYvzkxZM9qKAuG5mS-3" target="BF_jYvzkxZM9qKAuG5mS-1">
          <mxGeometry relative="1" as="geometry" />
        </mxCell>
        <mxCell id="BF_jYvzkxZM9qKAuG5mS-9" value="&lt;div style=&quot;color: rgb(248, 248, 242); background-color: rgb(39, 40, 34); font-family: Consolas, Consolas, &amp;quot;Courier New&amp;quot;, monospace; font-size: 14px; line-height: 19px; white-space-collapse: preserve;&quot;&gt;&lt;span style=&quot;color: rgb(136, 132, 111);&quot;&gt;{38, 27, 43, 3};&lt;/span&gt;&lt;/div&gt;" style="text;html=1;align=center;verticalAlign=middle;resizable=0;points=[];autosize=1;strokeColor=none;fillColor=none;" vertex="1" parent="1">
          <mxGeometry x="810" y="130" width="150" height="30" as="geometry" />
        </mxCell>
        <mxCell id="BF_jYvzkxZM9qKAuG5mS-10" value="&lt;div style=&quot;color: rgb(248, 248, 242); background-color: rgb(39, 40, 34); font-family: Consolas, Consolas, &amp;quot;Courier New&amp;quot;, monospace; font-size: 14px; line-height: 19px; white-space-collapse: preserve;&quot;&gt;&lt;span style=&quot;color: rgb(136, 132, 111);&quot;&gt;{ 9, 82, 10};&lt;/span&gt;&lt;/div&gt;" style="text;html=1;align=center;verticalAlign=middle;resizable=0;points=[];autosize=1;strokeColor=none;fillColor=none;" vertex="1" parent="1">
          <mxGeometry x="460" y="400" width="120" height="30" as="geometry" />
        </mxCell>
        <mxCell id="BF_jYvzkxZM9qKAuG5mS-26" style="edgeStyle=orthogonalEdgeStyle;rounded=0;orthogonalLoop=1;jettySize=auto;html=1;" edge="1" parent="1" source="BF_jYvzkxZM9qKAuG5mS-12" target="BF_jYvzkxZM9qKAuG5mS-14">
          <mxGeometry relative="1" as="geometry">
            <Array as="points">
              <mxPoint x="1175" y="540" />
              <mxPoint x="1055" y="540" />
            </Array>
          </mxGeometry>
        </mxCell>
        <mxCell id="BF_jYvzkxZM9qKAuG5mS-12" value="&lt;div style=&quot;color: #f8f8f2;background-color: #272822;font-family: Consolas, Consolas, &#39;Courier New&#39;, monospace;font-weight: normal;font-size: 14px;line-height: 19px;white-space: pre;&quot;&gt;&lt;br&gt;&lt;div&gt;&lt;span style=&quot;color: #66d9ef;font-style: italic;&quot;&gt;void&lt;/span&gt;&lt;span style=&quot;color: #f8f8f2;&quot;&gt; &lt;/span&gt;&lt;span style=&quot;color: #a6e22e;&quot;&gt;merge_sort&lt;/span&gt;&lt;span style=&quot;color: #f8f8f2;&quot;&gt;(&lt;/span&gt;&lt;span style=&quot;color: #a6e22e;text-decoration: underline;&quot;&gt;vector&lt;/span&gt;&lt;span style=&quot;color: #f8f8f2;&quot;&gt;&amp;lt;&lt;/span&gt;&lt;span style=&quot;color: #66d9ef;font-style: italic;&quot;&gt;int&lt;/span&gt;&lt;span style=&quot;color: #f8f8f2;&quot;&gt;&amp;gt; &lt;/span&gt;&lt;span style=&quot;color: #f92672;&quot;&gt;&amp;amp;&lt;/span&gt;&lt;span style=&quot;color: #fd971f;font-style: italic;&quot;&gt;a&lt;/span&gt;&lt;span style=&quot;color: #f8f8f2;&quot;&gt;, &lt;/span&gt;&lt;span style=&quot;color: #66d9ef;font-style: italic;&quot;&gt;int&lt;/span&gt;&lt;span style=&quot;color: #f8f8f2;&quot;&gt; &lt;/span&gt;&lt;span style=&quot;color: #fd971f;font-style: italic;&quot;&gt;low&lt;/span&gt;&lt;span style=&quot;color: #f8f8f2;&quot;&gt;, &lt;/span&gt;&lt;span style=&quot;color: #66d9ef;font-style: italic;&quot;&gt;int&lt;/span&gt;&lt;span style=&quot;color: #f8f8f2;&quot;&gt; &lt;/span&gt;&lt;span style=&quot;color: #fd971f;font-style: italic;&quot;&gt;high&lt;/span&gt;&lt;span style=&quot;color: #f8f8f2;&quot;&gt;){&lt;/span&gt;&lt;/div&gt;&lt;br&gt;&lt;div&gt;&lt;span style=&quot;color: #f8f8f2;&quot;&gt;&amp;nbsp; &amp;nbsp; &lt;/span&gt;&lt;span style=&quot;color: #f92672;&quot;&gt;if&lt;/span&gt;&lt;span style=&quot;color: #f8f8f2;&quot;&gt;(&lt;/span&gt;&lt;span style=&quot;color: #fd971f;font-style: italic;&quot;&gt;low&lt;/span&gt;&lt;span style=&quot;color: #f8f8f2;&quot;&gt; &lt;/span&gt;&lt;span style=&quot;color: #f92672;&quot;&gt;&amp;gt;=&lt;/span&gt;&lt;span style=&quot;color: #f8f8f2;&quot;&gt; &lt;/span&gt;&lt;span style=&quot;color: #fd971f;font-style: italic;&quot;&gt;high&lt;/span&gt;&lt;span style=&quot;color: #f8f8f2;&quot;&gt;)&lt;/span&gt;&lt;/div&gt;&lt;div&gt;&lt;span style=&quot;color: #f8f8f2;&quot;&gt;&amp;nbsp; &amp;nbsp; {&lt;/span&gt;&lt;/div&gt;&lt;div&gt;&lt;span style=&quot;color: #f8f8f2;&quot;&gt;&amp;nbsp; &amp;nbsp; &amp;nbsp; &amp;nbsp; &lt;/span&gt;&lt;span style=&quot;color: #f92672;&quot;&gt;return&lt;/span&gt;&lt;span style=&quot;color: #f8f8f2;&quot;&gt;;&lt;/span&gt;&lt;/div&gt;&lt;div&gt;&lt;span style=&quot;color: #f8f8f2;&quot;&gt;&amp;nbsp; &amp;nbsp; }&lt;/span&gt;&lt;/div&gt;&lt;div&gt;&lt;span style=&quot;color: #f8f8f2;&quot;&gt;&amp;nbsp; &amp;nbsp; &lt;/span&gt;&lt;/div&gt;&lt;div&gt;&lt;span style=&quot;color: #f8f8f2;&quot;&gt;&amp;nbsp; &amp;nbsp; &lt;/span&gt;&lt;span style=&quot;color: #66d9ef;font-style: italic;&quot;&gt;int&lt;/span&gt;&lt;span style=&quot;color: #f8f8f2;&quot;&gt; &lt;/span&gt;&lt;span style=&quot;color: #f8f8f2;&quot;&gt;mid&lt;/span&gt;&lt;span style=&quot;color: #f8f8f2;&quot;&gt; &lt;/span&gt;&lt;span style=&quot;color: #f92672;&quot;&gt;=&lt;/span&gt;&lt;span style=&quot;color: #f8f8f2;&quot;&gt; (&lt;/span&gt;&lt;span style=&quot;color: #fd971f;font-style: italic;&quot;&gt;low&lt;/span&gt;&lt;span style=&quot;color: #f92672;&quot;&gt;+&lt;/span&gt;&lt;span style=&quot;color: #fd971f;font-style: italic;&quot;&gt;high&lt;/span&gt;&lt;span style=&quot;color: #f8f8f2;&quot;&gt;) &lt;/span&gt;&lt;span style=&quot;color: #f92672;&quot;&gt;/&lt;/span&gt;&lt;span style=&quot;color: #f8f8f2;&quot;&gt; &lt;/span&gt;&lt;span style=&quot;color: #ae81ff;&quot;&gt;2&lt;/span&gt;&lt;span style=&quot;color: #f8f8f2;&quot;&gt;;&lt;/span&gt;&lt;/div&gt;&lt;br&gt;&lt;div&gt;&lt;span style=&quot;color: #f8f8f2;&quot;&gt;&amp;nbsp; &amp;nbsp; &lt;/span&gt;&lt;span style=&quot;color: #a6e22e;&quot;&gt;merge_sort&lt;/span&gt;&lt;span style=&quot;color: #f8f8f2;&quot;&gt;(&lt;/span&gt;&lt;span style=&quot;color: #fd971f;font-style: italic;&quot;&gt;a&lt;/span&gt;&lt;span style=&quot;color: #f8f8f2;&quot;&gt;, &lt;/span&gt;&lt;span style=&quot;color: #fd971f;font-style: italic;&quot;&gt;low&lt;/span&gt;&lt;span style=&quot;color: #f8f8f2;&quot;&gt;, &lt;/span&gt;&lt;span style=&quot;color: #f8f8f2;&quot;&gt;mid&lt;/span&gt;&lt;span style=&quot;color: #f8f8f2;&quot;&gt;);&lt;/span&gt;&lt;/div&gt;&lt;br&gt;&lt;div&gt;&lt;span style=&quot;color: #f8f8f2;&quot;&gt;&amp;nbsp; &amp;nbsp; &lt;/span&gt;&lt;span style=&quot;color: #a6e22e;&quot;&gt;merge_sort&lt;/span&gt;&lt;span style=&quot;color: #f8f8f2;&quot;&gt;(&lt;/span&gt;&lt;span style=&quot;color: #fd971f;font-style: italic;&quot;&gt;a&lt;/span&gt;&lt;span style=&quot;color: #f8f8f2;&quot;&gt;, &lt;/span&gt;&lt;span style=&quot;color: #f8f8f2;&quot;&gt;mid&lt;/span&gt;&lt;span style=&quot;color: #f92672;&quot;&gt;+&lt;/span&gt;&lt;span style=&quot;color: #ae81ff;&quot;&gt;1&lt;/span&gt;&lt;span style=&quot;color: #f8f8f2;&quot;&gt;, &lt;/span&gt;&lt;span style=&quot;color: #fd971f;font-style: italic;&quot;&gt;high&lt;/span&gt;&lt;span style=&quot;color: #f8f8f2;&quot;&gt;);&lt;/span&gt;&lt;/div&gt;&lt;br&gt;&lt;div&gt;&lt;span style=&quot;color: #f8f8f2;&quot;&gt;&amp;nbsp; &amp;nbsp; &lt;/span&gt;&lt;span style=&quot;color: #a6e22e;&quot;&gt;merge&lt;/span&gt;&lt;span style=&quot;color: #f8f8f2;&quot;&gt;(&lt;/span&gt;&lt;span style=&quot;color: #fd971f;font-style: italic;&quot;&gt;a&lt;/span&gt;&lt;span style=&quot;color: #f8f8f2;&quot;&gt;, &lt;/span&gt;&lt;span style=&quot;color: #fd971f;font-style: italic;&quot;&gt;low&lt;/span&gt;&lt;span style=&quot;color: #f8f8f2;&quot;&gt;, &lt;/span&gt;&lt;span style=&quot;color: #f8f8f2;&quot;&gt;mid&lt;/span&gt;&lt;span style=&quot;color: #f8f8f2;&quot;&gt;, &lt;/span&gt;&lt;span style=&quot;color: #fd971f;font-style: italic;&quot;&gt;high&lt;/span&gt;&lt;span style=&quot;color: #f8f8f2;&quot;&gt;);&lt;/span&gt;&lt;/div&gt;&lt;div&gt;&lt;span style=&quot;color: #f8f8f2;&quot;&gt;}&lt;/span&gt;&lt;/div&gt;&lt;br&gt;&lt;br&gt;&lt;/div&gt;" style="text;whiteSpace=wrap;html=1;" vertex="1" parent="1">
          <mxGeometry x="1020" y="600" width="310" height="330" as="geometry" />
        </mxCell>
        <mxCell id="BF_jYvzkxZM9qKAuG5mS-13" value="&lt;div style=&quot;color: rgb(248, 248, 242); background-color: rgb(39, 40, 34); font-family: Consolas, Consolas, &amp;quot;Courier New&amp;quot;, monospace; font-size: 14px; line-height: 19px; white-space-collapse: preserve;&quot;&gt;&lt;span style=&quot;color: rgb(136, 132, 111);&quot;&gt;{38, 27};&lt;/span&gt;&lt;/div&gt;" style="text;html=1;align=center;verticalAlign=middle;resizable=0;points=[];autosize=1;strokeColor=none;fillColor=none;" vertex="1" parent="1">
          <mxGeometry x="1010" y="390" width="90" height="30" as="geometry" />
        </mxCell>
        <mxCell id="BF_jYvzkxZM9qKAuG5mS-14" value="&lt;div style=&quot;color: rgb(248, 248, 242); background-color: rgb(39, 40, 34); font-family: Consolas, Consolas, &amp;quot;Courier New&amp;quot;, monospace; font-size: 14px; line-height: 19px; white-space-collapse: preserve;&quot;&gt;&lt;span style=&quot;color: rgb(136, 132, 111);&quot;&gt;{ 43, 3};&lt;/span&gt;&lt;/div&gt;" style="text;html=1;align=center;verticalAlign=middle;resizable=0;points=[];autosize=1;strokeColor=none;fillColor=none;" vertex="1" parent="1">
          <mxGeometry x="1010" y="430" width="90" height="30" as="geometry" />
        </mxCell>
        <mxCell id="BF_jYvzkxZM9qKAuG5mS-15" value="&lt;div style=&quot;color: rgb(248, 248, 242); background-color: rgb(39, 40, 34); font-family: Consolas, Consolas, &amp;quot;Courier New&amp;quot;, monospace; font-size: 14px; line-height: 19px; white-space-collapse: preserve;&quot;&gt;&lt;span style=&quot;color: rgb(136, 132, 111);&quot;&gt;{ 43, 3};&lt;/span&gt;&lt;/div&gt;" style="text;html=1;align=center;verticalAlign=middle;resizable=0;points=[];autosize=1;strokeColor=none;fillColor=none;" vertex="1" parent="1">
          <mxGeometry x="1640" y="555" width="90" height="30" as="geometry" />
        </mxCell>
        <mxCell id="BF_jYvzkxZM9qKAuG5mS-16" value="&lt;div style=&quot;color: #f8f8f2;background-color: #272822;font-family: Consolas, Consolas, &#39;Courier New&#39;, monospace;font-weight: normal;font-size: 14px;line-height: 19px;white-space: pre;&quot;&gt;&lt;br&gt;&lt;div&gt;&lt;span style=&quot;color: #66d9ef;font-style: italic;&quot;&gt;void&lt;/span&gt;&lt;span style=&quot;color: #f8f8f2;&quot;&gt; &lt;/span&gt;&lt;span style=&quot;color: #a6e22e;&quot;&gt;merge_sort&lt;/span&gt;&lt;span style=&quot;color: #f8f8f2;&quot;&gt;(&lt;/span&gt;&lt;span style=&quot;color: #a6e22e;text-decoration: underline;&quot;&gt;vector&lt;/span&gt;&lt;span style=&quot;color: #f8f8f2;&quot;&gt;&amp;lt;&lt;/span&gt;&lt;span style=&quot;color: #66d9ef;font-style: italic;&quot;&gt;int&lt;/span&gt;&lt;span style=&quot;color: #f8f8f2;&quot;&gt;&amp;gt; &lt;/span&gt;&lt;span style=&quot;color: #f92672;&quot;&gt;&amp;amp;&lt;/span&gt;&lt;span style=&quot;color: #fd971f;font-style: italic;&quot;&gt;a&lt;/span&gt;&lt;span style=&quot;color: #f8f8f2;&quot;&gt;, &lt;/span&gt;&lt;span style=&quot;color: #66d9ef;font-style: italic;&quot;&gt;int&lt;/span&gt;&lt;span style=&quot;color: #f8f8f2;&quot;&gt; &lt;/span&gt;&lt;span style=&quot;color: #fd971f;font-style: italic;&quot;&gt;low&lt;/span&gt;&lt;span style=&quot;color: #f8f8f2;&quot;&gt;, &lt;/span&gt;&lt;span style=&quot;color: #66d9ef;font-style: italic;&quot;&gt;int&lt;/span&gt;&lt;span style=&quot;color: #f8f8f2;&quot;&gt; &lt;/span&gt;&lt;span style=&quot;color: #fd971f;font-style: italic;&quot;&gt;high&lt;/span&gt;&lt;span style=&quot;color: #f8f8f2;&quot;&gt;){&lt;/span&gt;&lt;/div&gt;&lt;br&gt;&lt;div&gt;&lt;span style=&quot;color: #f8f8f2;&quot;&gt;&amp;nbsp; &amp;nbsp; &lt;/span&gt;&lt;span style=&quot;color: #f92672;&quot;&gt;if&lt;/span&gt;&lt;span style=&quot;color: #f8f8f2;&quot;&gt;(&lt;/span&gt;&lt;span style=&quot;color: #fd971f;font-style: italic;&quot;&gt;low&lt;/span&gt;&lt;span style=&quot;color: #f8f8f2;&quot;&gt; &lt;/span&gt;&lt;span style=&quot;color: #f92672;&quot;&gt;&amp;gt;=&lt;/span&gt;&lt;span style=&quot;color: #f8f8f2;&quot;&gt; &lt;/span&gt;&lt;span style=&quot;color: #fd971f;font-style: italic;&quot;&gt;high&lt;/span&gt;&lt;span style=&quot;color: #f8f8f2;&quot;&gt;)&lt;/span&gt;&lt;/div&gt;&lt;div&gt;&lt;span style=&quot;color: #f8f8f2;&quot;&gt;&amp;nbsp; &amp;nbsp; {&lt;/span&gt;&lt;/div&gt;&lt;div&gt;&lt;span style=&quot;color: #f8f8f2;&quot;&gt;&amp;nbsp; &amp;nbsp; &amp;nbsp; &amp;nbsp; &lt;/span&gt;&lt;span style=&quot;color: #f92672;&quot;&gt;return&lt;/span&gt;&lt;span style=&quot;color: #f8f8f2;&quot;&gt;;&lt;/span&gt;&lt;/div&gt;&lt;div&gt;&lt;span style=&quot;color: #f8f8f2;&quot;&gt;&amp;nbsp; &amp;nbsp; }&lt;/span&gt;&lt;/div&gt;&lt;div&gt;&lt;span style=&quot;color: #f8f8f2;&quot;&gt;&amp;nbsp; &amp;nbsp; &lt;/span&gt;&lt;/div&gt;&lt;div&gt;&lt;span style=&quot;color: #f8f8f2;&quot;&gt;&amp;nbsp; &amp;nbsp; &lt;/span&gt;&lt;span style=&quot;color: #66d9ef;font-style: italic;&quot;&gt;int&lt;/span&gt;&lt;span style=&quot;color: #f8f8f2;&quot;&gt; &lt;/span&gt;&lt;span style=&quot;color: #f8f8f2;&quot;&gt;mid&lt;/span&gt;&lt;span style=&quot;color: #f8f8f2;&quot;&gt; &lt;/span&gt;&lt;span style=&quot;color: #f92672;&quot;&gt;=&lt;/span&gt;&lt;span style=&quot;color: #f8f8f2;&quot;&gt; (&lt;/span&gt;&lt;span style=&quot;color: #fd971f;font-style: italic;&quot;&gt;low&lt;/span&gt;&lt;span style=&quot;color: #f92672;&quot;&gt;+&lt;/span&gt;&lt;span style=&quot;color: #fd971f;font-style: italic;&quot;&gt;high&lt;/span&gt;&lt;span style=&quot;color: #f8f8f2;&quot;&gt;) &lt;/span&gt;&lt;span style=&quot;color: #f92672;&quot;&gt;/&lt;/span&gt;&lt;span style=&quot;color: #f8f8f2;&quot;&gt; &lt;/span&gt;&lt;span style=&quot;color: #ae81ff;&quot;&gt;2&lt;/span&gt;&lt;span style=&quot;color: #f8f8f2;&quot;&gt;;&lt;/span&gt;&lt;/div&gt;&lt;br&gt;&lt;div&gt;&lt;span style=&quot;color: #f8f8f2;&quot;&gt;&amp;nbsp; &amp;nbsp; &lt;/span&gt;&lt;span style=&quot;color: #a6e22e;&quot;&gt;merge_sort&lt;/span&gt;&lt;span style=&quot;color: #f8f8f2;&quot;&gt;(&lt;/span&gt;&lt;span style=&quot;color: #fd971f;font-style: italic;&quot;&gt;a&lt;/span&gt;&lt;span style=&quot;color: #f8f8f2;&quot;&gt;, &lt;/span&gt;&lt;span style=&quot;color: #fd971f;font-style: italic;&quot;&gt;low&lt;/span&gt;&lt;span style=&quot;color: #f8f8f2;&quot;&gt;, &lt;/span&gt;&lt;span style=&quot;color: #f8f8f2;&quot;&gt;mid&lt;/span&gt;&lt;span style=&quot;color: #f8f8f2;&quot;&gt;);&lt;/span&gt;&lt;/div&gt;&lt;br&gt;&lt;div&gt;&lt;span style=&quot;color: #f8f8f2;&quot;&gt;&amp;nbsp; &amp;nbsp; &lt;/span&gt;&lt;span style=&quot;color: #a6e22e;&quot;&gt;merge_sort&lt;/span&gt;&lt;span style=&quot;color: #f8f8f2;&quot;&gt;(&lt;/span&gt;&lt;span style=&quot;color: #fd971f;font-style: italic;&quot;&gt;a&lt;/span&gt;&lt;span style=&quot;color: #f8f8f2;&quot;&gt;, &lt;/span&gt;&lt;span style=&quot;color: #f8f8f2;&quot;&gt;mid&lt;/span&gt;&lt;span style=&quot;color: #f92672;&quot;&gt;+&lt;/span&gt;&lt;span style=&quot;color: #ae81ff;&quot;&gt;1&lt;/span&gt;&lt;span style=&quot;color: #f8f8f2;&quot;&gt;, &lt;/span&gt;&lt;span style=&quot;color: #fd971f;font-style: italic;&quot;&gt;high&lt;/span&gt;&lt;span style=&quot;color: #f8f8f2;&quot;&gt;);&lt;/span&gt;&lt;/div&gt;&lt;br&gt;&lt;div&gt;&lt;span style=&quot;color: #f8f8f2;&quot;&gt;&amp;nbsp; &amp;nbsp; &lt;/span&gt;&lt;span style=&quot;color: #a6e22e;&quot;&gt;merge&lt;/span&gt;&lt;span style=&quot;color: #f8f8f2;&quot;&gt;(&lt;/span&gt;&lt;span style=&quot;color: #fd971f;font-style: italic;&quot;&gt;a&lt;/span&gt;&lt;span style=&quot;color: #f8f8f2;&quot;&gt;, &lt;/span&gt;&lt;span style=&quot;color: #fd971f;font-style: italic;&quot;&gt;low&lt;/span&gt;&lt;span style=&quot;color: #f8f8f2;&quot;&gt;, &lt;/span&gt;&lt;span style=&quot;color: #f8f8f2;&quot;&gt;mid&lt;/span&gt;&lt;span style=&quot;color: #f8f8f2;&quot;&gt;, &lt;/span&gt;&lt;span style=&quot;color: #fd971f;font-style: italic;&quot;&gt;high&lt;/span&gt;&lt;span style=&quot;color: #f8f8f2;&quot;&gt;);&lt;/span&gt;&lt;/div&gt;&lt;div&gt;&lt;span style=&quot;color: #f8f8f2;&quot;&gt;}&lt;/span&gt;&lt;/div&gt;&lt;br&gt;&lt;br&gt;&lt;/div&gt;" style="text;whiteSpace=wrap;html=1;" vertex="1" parent="1">
          <mxGeometry x="120" y="870" width="310" height="330" as="geometry" />
        </mxCell>
        <mxCell id="BF_jYvzkxZM9qKAuG5mS-18" value="&lt;div style=&quot;color: #f8f8f2;background-color: #272822;font-family: Consolas, Consolas, &#39;Courier New&#39;, monospace;font-weight: normal;font-size: 14px;line-height: 19px;white-space: pre;&quot;&gt;&lt;br&gt;&lt;div&gt;&lt;span style=&quot;color: #66d9ef;font-style: italic;&quot;&gt;void&lt;/span&gt;&lt;span style=&quot;color: #f8f8f2;&quot;&gt; &lt;/span&gt;&lt;span style=&quot;color: #a6e22e;&quot;&gt;merge_sort&lt;/span&gt;&lt;span style=&quot;color: #f8f8f2;&quot;&gt;(&lt;/span&gt;&lt;span style=&quot;color: #a6e22e;text-decoration: underline;&quot;&gt;vector&lt;/span&gt;&lt;span style=&quot;color: #f8f8f2;&quot;&gt;&amp;lt;&lt;/span&gt;&lt;span style=&quot;color: #66d9ef;font-style: italic;&quot;&gt;int&lt;/span&gt;&lt;span style=&quot;color: #f8f8f2;&quot;&gt;&amp;gt; &lt;/span&gt;&lt;span style=&quot;color: #f92672;&quot;&gt;&amp;amp;&lt;/span&gt;&lt;span style=&quot;color: #fd971f;font-style: italic;&quot;&gt;a&lt;/span&gt;&lt;span style=&quot;color: #f8f8f2;&quot;&gt;, &lt;/span&gt;&lt;span style=&quot;color: #66d9ef;font-style: italic;&quot;&gt;int&lt;/span&gt;&lt;span style=&quot;color: #f8f8f2;&quot;&gt; &lt;/span&gt;&lt;span style=&quot;color: #fd971f;font-style: italic;&quot;&gt;low&lt;/span&gt;&lt;span style=&quot;color: #f8f8f2;&quot;&gt;, &lt;/span&gt;&lt;span style=&quot;color: #66d9ef;font-style: italic;&quot;&gt;int&lt;/span&gt;&lt;span style=&quot;color: #f8f8f2;&quot;&gt; &lt;/span&gt;&lt;span style=&quot;color: #fd971f;font-style: italic;&quot;&gt;high&lt;/span&gt;&lt;span style=&quot;color: #f8f8f2;&quot;&gt;){&lt;/span&gt;&lt;/div&gt;&lt;br&gt;&lt;div&gt;&lt;span style=&quot;color: #f8f8f2;&quot;&gt;&amp;nbsp; &amp;nbsp; &lt;/span&gt;&lt;span style=&quot;color: #f92672;&quot;&gt;if&lt;/span&gt;&lt;span style=&quot;color: #f8f8f2;&quot;&gt;(&lt;/span&gt;&lt;span style=&quot;color: #fd971f;font-style: italic;&quot;&gt;low&lt;/span&gt;&lt;span style=&quot;color: #f8f8f2;&quot;&gt; &lt;/span&gt;&lt;span style=&quot;color: #f92672;&quot;&gt;&amp;gt;=&lt;/span&gt;&lt;span style=&quot;color: #f8f8f2;&quot;&gt; &lt;/span&gt;&lt;span style=&quot;color: #fd971f;font-style: italic;&quot;&gt;high&lt;/span&gt;&lt;span style=&quot;color: #f8f8f2;&quot;&gt;)&lt;/span&gt;&lt;/div&gt;&lt;div&gt;&lt;span style=&quot;color: #f8f8f2;&quot;&gt;&amp;nbsp; &amp;nbsp; {&lt;/span&gt;&lt;/div&gt;&lt;div&gt;&lt;span style=&quot;color: #f8f8f2;&quot;&gt;&amp;nbsp; &amp;nbsp; &amp;nbsp; &amp;nbsp; &lt;/span&gt;&lt;span style=&quot;color: #f92672;&quot;&gt;return&lt;/span&gt;&lt;span style=&quot;color: #f8f8f2;&quot;&gt;;&lt;/span&gt;&lt;/div&gt;&lt;div&gt;&lt;span style=&quot;color: #f8f8f2;&quot;&gt;&amp;nbsp; &amp;nbsp; }&lt;/span&gt;&lt;/div&gt;&lt;div&gt;&lt;span style=&quot;color: #f8f8f2;&quot;&gt;&amp;nbsp; &amp;nbsp; &lt;/span&gt;&lt;/div&gt;&lt;div&gt;&lt;span style=&quot;color: #f8f8f2;&quot;&gt;&amp;nbsp; &amp;nbsp; &lt;/span&gt;&lt;span style=&quot;color: #66d9ef;font-style: italic;&quot;&gt;int&lt;/span&gt;&lt;span style=&quot;color: #f8f8f2;&quot;&gt; &lt;/span&gt;&lt;span style=&quot;color: #f8f8f2;&quot;&gt;mid&lt;/span&gt;&lt;span style=&quot;color: #f8f8f2;&quot;&gt; &lt;/span&gt;&lt;span style=&quot;color: #f92672;&quot;&gt;=&lt;/span&gt;&lt;span style=&quot;color: #f8f8f2;&quot;&gt; (&lt;/span&gt;&lt;span style=&quot;color: #fd971f;font-style: italic;&quot;&gt;low&lt;/span&gt;&lt;span style=&quot;color: #f92672;&quot;&gt;+&lt;/span&gt;&lt;span style=&quot;color: #fd971f;font-style: italic;&quot;&gt;high&lt;/span&gt;&lt;span style=&quot;color: #f8f8f2;&quot;&gt;) &lt;/span&gt;&lt;span style=&quot;color: #f92672;&quot;&gt;/&lt;/span&gt;&lt;span style=&quot;color: #f8f8f2;&quot;&gt; &lt;/span&gt;&lt;span style=&quot;color: #ae81ff;&quot;&gt;2&lt;/span&gt;&lt;span style=&quot;color: #f8f8f2;&quot;&gt;;&lt;/span&gt;&lt;/div&gt;&lt;br&gt;&lt;div&gt;&lt;span style=&quot;color: #f8f8f2;&quot;&gt;&amp;nbsp; &amp;nbsp; &lt;/span&gt;&lt;span style=&quot;color: #a6e22e;&quot;&gt;merge_sort&lt;/span&gt;&lt;span style=&quot;color: #f8f8f2;&quot;&gt;(&lt;/span&gt;&lt;span style=&quot;color: #fd971f;font-style: italic;&quot;&gt;a&lt;/span&gt;&lt;span style=&quot;color: #f8f8f2;&quot;&gt;, &lt;/span&gt;&lt;span style=&quot;color: #fd971f;font-style: italic;&quot;&gt;low&lt;/span&gt;&lt;span style=&quot;color: #f8f8f2;&quot;&gt;, &lt;/span&gt;&lt;span style=&quot;color: #f8f8f2;&quot;&gt;mid&lt;/span&gt;&lt;span style=&quot;color: #f8f8f2;&quot;&gt;);&lt;/span&gt;&lt;/div&gt;&lt;br&gt;&lt;div&gt;&lt;span style=&quot;color: #f8f8f2;&quot;&gt;&amp;nbsp; &amp;nbsp; &lt;/span&gt;&lt;span style=&quot;color: #a6e22e;&quot;&gt;merge_sort&lt;/span&gt;&lt;span style=&quot;color: #f8f8f2;&quot;&gt;(&lt;/span&gt;&lt;span style=&quot;color: #fd971f;font-style: italic;&quot;&gt;a&lt;/span&gt;&lt;span style=&quot;color: #f8f8f2;&quot;&gt;, &lt;/span&gt;&lt;span style=&quot;color: #f8f8f2;&quot;&gt;mid&lt;/span&gt;&lt;span style=&quot;color: #f92672;&quot;&gt;+&lt;/span&gt;&lt;span style=&quot;color: #ae81ff;&quot;&gt;1&lt;/span&gt;&lt;span style=&quot;color: #f8f8f2;&quot;&gt;, &lt;/span&gt;&lt;span style=&quot;color: #fd971f;font-style: italic;&quot;&gt;high&lt;/span&gt;&lt;span style=&quot;color: #f8f8f2;&quot;&gt;);&lt;/span&gt;&lt;/div&gt;&lt;br&gt;&lt;div&gt;&lt;span style=&quot;color: #f8f8f2;&quot;&gt;&amp;nbsp; &amp;nbsp; &lt;/span&gt;&lt;span style=&quot;color: #a6e22e;&quot;&gt;merge&lt;/span&gt;&lt;span style=&quot;color: #f8f8f2;&quot;&gt;(&lt;/span&gt;&lt;span style=&quot;color: #fd971f;font-style: italic;&quot;&gt;a&lt;/span&gt;&lt;span style=&quot;color: #f8f8f2;&quot;&gt;, &lt;/span&gt;&lt;span style=&quot;color: #fd971f;font-style: italic;&quot;&gt;low&lt;/span&gt;&lt;span style=&quot;color: #f8f8f2;&quot;&gt;, &lt;/span&gt;&lt;span style=&quot;color: #f8f8f2;&quot;&gt;mid&lt;/span&gt;&lt;span style=&quot;color: #f8f8f2;&quot;&gt;, &lt;/span&gt;&lt;span style=&quot;color: #fd971f;font-style: italic;&quot;&gt;high&lt;/span&gt;&lt;span style=&quot;color: #f8f8f2;&quot;&gt;);&lt;/span&gt;&lt;/div&gt;&lt;div&gt;&lt;span style=&quot;color: #f8f8f2;&quot;&gt;}&lt;/span&gt;&lt;/div&gt;&lt;br&gt;&lt;br&gt;&lt;/div&gt;" style="text;whiteSpace=wrap;html=1;" vertex="1" parent="1">
          <mxGeometry x="290" y="2410" width="310" height="330" as="geometry" />
        </mxCell>
        <mxCell id="BF_jYvzkxZM9qKAuG5mS-19" value="&lt;div style=&quot;color: #f8f8f2;background-color: #272822;font-family: Consolas, Consolas, &#39;Courier New&#39;, monospace;font-weight: normal;font-size: 14px;line-height: 19px;white-space: pre;&quot;&gt;&lt;br&gt;&lt;div&gt;&lt;span style=&quot;color: #66d9ef;font-style: italic;&quot;&gt;void&lt;/span&gt;&lt;span style=&quot;color: #f8f8f2;&quot;&gt; &lt;/span&gt;&lt;span style=&quot;color: #a6e22e;&quot;&gt;merge_sort&lt;/span&gt;&lt;span style=&quot;color: #f8f8f2;&quot;&gt;(&lt;/span&gt;&lt;span style=&quot;color: #a6e22e;text-decoration: underline;&quot;&gt;vector&lt;/span&gt;&lt;span style=&quot;color: #f8f8f2;&quot;&gt;&amp;lt;&lt;/span&gt;&lt;span style=&quot;color: #66d9ef;font-style: italic;&quot;&gt;int&lt;/span&gt;&lt;span style=&quot;color: #f8f8f2;&quot;&gt;&amp;gt; &lt;/span&gt;&lt;span style=&quot;color: #f92672;&quot;&gt;&amp;amp;&lt;/span&gt;&lt;span style=&quot;color: #fd971f;font-style: italic;&quot;&gt;a&lt;/span&gt;&lt;span style=&quot;color: #f8f8f2;&quot;&gt;, &lt;/span&gt;&lt;span style=&quot;color: #66d9ef;font-style: italic;&quot;&gt;int&lt;/span&gt;&lt;span style=&quot;color: #f8f8f2;&quot;&gt; &lt;/span&gt;&lt;span style=&quot;color: #fd971f;font-style: italic;&quot;&gt;low&lt;/span&gt;&lt;span style=&quot;color: #f8f8f2;&quot;&gt;, &lt;/span&gt;&lt;span style=&quot;color: #66d9ef;font-style: italic;&quot;&gt;int&lt;/span&gt;&lt;span style=&quot;color: #f8f8f2;&quot;&gt; &lt;/span&gt;&lt;span style=&quot;color: #fd971f;font-style: italic;&quot;&gt;high&lt;/span&gt;&lt;span style=&quot;color: #f8f8f2;&quot;&gt;){&lt;/span&gt;&lt;/div&gt;&lt;br&gt;&lt;div&gt;&lt;span style=&quot;color: #f8f8f2;&quot;&gt;&amp;nbsp; &amp;nbsp; &lt;/span&gt;&lt;span style=&quot;color: #f92672;&quot;&gt;if&lt;/span&gt;&lt;span style=&quot;color: #f8f8f2;&quot;&gt;(&lt;/span&gt;&lt;span style=&quot;color: #fd971f;font-style: italic;&quot;&gt;low&lt;/span&gt;&lt;span style=&quot;color: #f8f8f2;&quot;&gt; &lt;/span&gt;&lt;span style=&quot;color: #f92672;&quot;&gt;&amp;gt;=&lt;/span&gt;&lt;span style=&quot;color: #f8f8f2;&quot;&gt; &lt;/span&gt;&lt;span style=&quot;color: #fd971f;font-style: italic;&quot;&gt;high&lt;/span&gt;&lt;span style=&quot;color: #f8f8f2;&quot;&gt;)&lt;/span&gt;&lt;/div&gt;&lt;div&gt;&lt;span style=&quot;color: #f8f8f2;&quot;&gt;&amp;nbsp; &amp;nbsp; {&lt;/span&gt;&lt;/div&gt;&lt;div&gt;&lt;span style=&quot;color: #f8f8f2;&quot;&gt;&amp;nbsp; &amp;nbsp; &amp;nbsp; &amp;nbsp; &lt;/span&gt;&lt;span style=&quot;color: #f92672;&quot;&gt;return&lt;/span&gt;&lt;span style=&quot;color: #f8f8f2;&quot;&gt;;&lt;/span&gt;&lt;/div&gt;&lt;div&gt;&lt;span style=&quot;color: #f8f8f2;&quot;&gt;&amp;nbsp; &amp;nbsp; }&lt;/span&gt;&lt;/div&gt;&lt;div&gt;&lt;span style=&quot;color: #f8f8f2;&quot;&gt;&amp;nbsp; &amp;nbsp; &lt;/span&gt;&lt;/div&gt;&lt;div&gt;&lt;span style=&quot;color: #f8f8f2;&quot;&gt;&amp;nbsp; &amp;nbsp; &lt;/span&gt;&lt;span style=&quot;color: #66d9ef;font-style: italic;&quot;&gt;int&lt;/span&gt;&lt;span style=&quot;color: #f8f8f2;&quot;&gt; &lt;/span&gt;&lt;span style=&quot;color: #f8f8f2;&quot;&gt;mid&lt;/span&gt;&lt;span style=&quot;color: #f8f8f2;&quot;&gt; &lt;/span&gt;&lt;span style=&quot;color: #f92672;&quot;&gt;=&lt;/span&gt;&lt;span style=&quot;color: #f8f8f2;&quot;&gt; (&lt;/span&gt;&lt;span style=&quot;color: #fd971f;font-style: italic;&quot;&gt;low&lt;/span&gt;&lt;span style=&quot;color: #f92672;&quot;&gt;+&lt;/span&gt;&lt;span style=&quot;color: #fd971f;font-style: italic;&quot;&gt;high&lt;/span&gt;&lt;span style=&quot;color: #f8f8f2;&quot;&gt;) &lt;/span&gt;&lt;span style=&quot;color: #f92672;&quot;&gt;/&lt;/span&gt;&lt;span style=&quot;color: #f8f8f2;&quot;&gt; &lt;/span&gt;&lt;span style=&quot;color: #ae81ff;&quot;&gt;2&lt;/span&gt;&lt;span style=&quot;color: #f8f8f2;&quot;&gt;;&lt;/span&gt;&lt;/div&gt;&lt;br&gt;&lt;div&gt;&lt;span style=&quot;color: #f8f8f2;&quot;&gt;&amp;nbsp; &amp;nbsp; &lt;/span&gt;&lt;span style=&quot;color: #a6e22e;&quot;&gt;merge_sort&lt;/span&gt;&lt;span style=&quot;color: #f8f8f2;&quot;&gt;(&lt;/span&gt;&lt;span style=&quot;color: #fd971f;font-style: italic;&quot;&gt;a&lt;/span&gt;&lt;span style=&quot;color: #f8f8f2;&quot;&gt;, &lt;/span&gt;&lt;span style=&quot;color: #fd971f;font-style: italic;&quot;&gt;low&lt;/span&gt;&lt;span style=&quot;color: #f8f8f2;&quot;&gt;, &lt;/span&gt;&lt;span style=&quot;color: #f8f8f2;&quot;&gt;mid&lt;/span&gt;&lt;span style=&quot;color: #f8f8f2;&quot;&gt;);&lt;/span&gt;&lt;/div&gt;&lt;br&gt;&lt;div&gt;&lt;span style=&quot;color: #f8f8f2;&quot;&gt;&amp;nbsp; &amp;nbsp; &lt;/span&gt;&lt;span style=&quot;color: #a6e22e;&quot;&gt;merge_sort&lt;/span&gt;&lt;span style=&quot;color: #f8f8f2;&quot;&gt;(&lt;/span&gt;&lt;span style=&quot;color: #fd971f;font-style: italic;&quot;&gt;a&lt;/span&gt;&lt;span style=&quot;color: #f8f8f2;&quot;&gt;, &lt;/span&gt;&lt;span style=&quot;color: #f8f8f2;&quot;&gt;mid&lt;/span&gt;&lt;span style=&quot;color: #f92672;&quot;&gt;+&lt;/span&gt;&lt;span style=&quot;color: #ae81ff;&quot;&gt;1&lt;/span&gt;&lt;span style=&quot;color: #f8f8f2;&quot;&gt;, &lt;/span&gt;&lt;span style=&quot;color: #fd971f;font-style: italic;&quot;&gt;high&lt;/span&gt;&lt;span style=&quot;color: #f8f8f2;&quot;&gt;);&lt;/span&gt;&lt;/div&gt;&lt;br&gt;&lt;div&gt;&lt;span style=&quot;color: #f8f8f2;&quot;&gt;&amp;nbsp; &amp;nbsp; &lt;/span&gt;&lt;span style=&quot;color: #a6e22e;&quot;&gt;merge&lt;/span&gt;&lt;span style=&quot;color: #f8f8f2;&quot;&gt;(&lt;/span&gt;&lt;span style=&quot;color: #fd971f;font-style: italic;&quot;&gt;a&lt;/span&gt;&lt;span style=&quot;color: #f8f8f2;&quot;&gt;, &lt;/span&gt;&lt;span style=&quot;color: #fd971f;font-style: italic;&quot;&gt;low&lt;/span&gt;&lt;span style=&quot;color: #f8f8f2;&quot;&gt;, &lt;/span&gt;&lt;span style=&quot;color: #f8f8f2;&quot;&gt;mid&lt;/span&gt;&lt;span style=&quot;color: #f8f8f2;&quot;&gt;, &lt;/span&gt;&lt;span style=&quot;color: #fd971f;font-style: italic;&quot;&gt;high&lt;/span&gt;&lt;span style=&quot;color: #f8f8f2;&quot;&gt;);&lt;/span&gt;&lt;/div&gt;&lt;div&gt;&lt;span style=&quot;color: #f8f8f2;&quot;&gt;}&lt;/span&gt;&lt;/div&gt;&lt;br&gt;&lt;br&gt;&lt;/div&gt;" style="text;whiteSpace=wrap;html=1;" vertex="1" parent="1">
          <mxGeometry x="650" y="1010" width="310" height="330" as="geometry" />
        </mxCell>
        <mxCell id="BF_jYvzkxZM9qKAuG5mS-28" style="edgeStyle=orthogonalEdgeStyle;rounded=0;orthogonalLoop=1;jettySize=auto;html=1;" edge="1" parent="1" source="BF_jYvzkxZM9qKAuG5mS-20" target="BF_jYvzkxZM9qKAuG5mS-22">
          <mxGeometry relative="1" as="geometry" />
        </mxCell>
        <mxCell id="BF_jYvzkxZM9qKAuG5mS-20" value="&lt;div style=&quot;color: rgb(248, 248, 242); background-color: rgb(39, 40, 34); font-family: Consolas, Consolas, &amp;quot;Courier New&amp;quot;, monospace; font-size: 14px; line-height: 19px; white-space-collapse: preserve;&quot;&gt;&lt;span style=&quot;color: rgb(136, 132, 111);&quot;&gt;{ 9, 82}&lt;/span&gt;&lt;/div&gt;" style="text;html=1;align=center;verticalAlign=middle;resizable=0;points=[];autosize=1;strokeColor=none;fillColor=none;" vertex="1" parent="1">
          <mxGeometry x="535" y="620" width="90" height="30" as="geometry" />
        </mxCell>
        <mxCell id="BF_jYvzkxZM9qKAuG5mS-21" value="&lt;div style=&quot;color: rgb(248, 248, 242); background-color: rgb(39, 40, 34); font-family: Consolas, Consolas, &amp;quot;Courier New&amp;quot;, monospace; font-size: 14px; line-height: 19px; white-space-collapse: preserve;&quot;&gt;&lt;span style=&quot;color: rgb(136, 132, 111);&quot;&gt;{10};&lt;/span&gt;&lt;/div&gt;" style="text;html=1;align=center;verticalAlign=middle;resizable=0;points=[];autosize=1;strokeColor=none;fillColor=none;" vertex="1" parent="1">
          <mxGeometry x="560" y="660" width="60" height="30" as="geometry" />
        </mxCell>
        <mxCell id="BF_jYvzkxZM9qKAuG5mS-22" value="&lt;div style=&quot;color: rgb(248, 248, 242); background-color: rgb(39, 40, 34); font-family: Consolas, Consolas, &amp;quot;Courier New&amp;quot;, monospace; font-size: 14px; line-height: 19px; white-space-collapse: preserve;&quot;&gt;&lt;span style=&quot;color: rgb(136, 132, 111);&quot;&gt;{ 9, 82}&lt;/span&gt;&lt;/div&gt;" style="text;html=1;align=center;verticalAlign=middle;resizable=0;points=[];autosize=1;strokeColor=none;fillColor=none;" vertex="1" parent="1">
          <mxGeometry x="260" y="840" width="90" height="30" as="geometry" />
        </mxCell>
        <mxCell id="BF_jYvzkxZM9qKAuG5mS-23" value="&lt;div style=&quot;color: rgb(248, 248, 242); background-color: rgb(39, 40, 34); font-family: Consolas, Consolas, &amp;quot;Courier New&amp;quot;, monospace; font-size: 14px; line-height: 19px; white-space-collapse: preserve;&quot;&gt;&lt;span style=&quot;color: rgb(136, 132, 111);&quot;&gt;{38, 27};&lt;/span&gt;&lt;/div&gt;" style="text;html=1;align=center;verticalAlign=middle;resizable=0;points=[];autosize=1;strokeColor=none;fillColor=none;" vertex="1" parent="1">
          <mxGeometry x="1160" y="570" width="90" height="30" as="geometry" />
        </mxCell>
        <mxCell id="BF_jYvzkxZM9qKAuG5mS-24" value="&lt;div style=&quot;color: #f8f8f2;background-color: #272822;font-family: Consolas, Consolas, &#39;Courier New&#39;, monospace;font-weight: normal;font-size: 14px;line-height: 19px;white-space: pre;&quot;&gt;&lt;br&gt;&lt;div&gt;&lt;span style=&quot;color: #66d9ef;font-style: italic;&quot;&gt;void&lt;/span&gt;&lt;span style=&quot;color: #f8f8f2;&quot;&gt; &lt;/span&gt;&lt;span style=&quot;color: #a6e22e;&quot;&gt;merge_sort&lt;/span&gt;&lt;span style=&quot;color: #f8f8f2;&quot;&gt;(&lt;/span&gt;&lt;span style=&quot;color: #a6e22e;text-decoration: underline;&quot;&gt;vector&lt;/span&gt;&lt;span style=&quot;color: #f8f8f2;&quot;&gt;&amp;lt;&lt;/span&gt;&lt;span style=&quot;color: #66d9ef;font-style: italic;&quot;&gt;int&lt;/span&gt;&lt;span style=&quot;color: #f8f8f2;&quot;&gt;&amp;gt; &lt;/span&gt;&lt;span style=&quot;color: #f92672;&quot;&gt;&amp;amp;&lt;/span&gt;&lt;span style=&quot;color: #fd971f;font-style: italic;&quot;&gt;a&lt;/span&gt;&lt;span style=&quot;color: #f8f8f2;&quot;&gt;, &lt;/span&gt;&lt;span style=&quot;color: #66d9ef;font-style: italic;&quot;&gt;int&lt;/span&gt;&lt;span style=&quot;color: #f8f8f2;&quot;&gt; &lt;/span&gt;&lt;span style=&quot;color: #fd971f;font-style: italic;&quot;&gt;low&lt;/span&gt;&lt;span style=&quot;color: #f8f8f2;&quot;&gt;, &lt;/span&gt;&lt;span style=&quot;color: #66d9ef;font-style: italic;&quot;&gt;int&lt;/span&gt;&lt;span style=&quot;color: #f8f8f2;&quot;&gt; &lt;/span&gt;&lt;span style=&quot;color: #fd971f;font-style: italic;&quot;&gt;high&lt;/span&gt;&lt;span style=&quot;color: #f8f8f2;&quot;&gt;){&lt;/span&gt;&lt;/div&gt;&lt;br&gt;&lt;div&gt;&lt;span style=&quot;color: #f8f8f2;&quot;&gt;&amp;nbsp; &amp;nbsp; &lt;/span&gt;&lt;span style=&quot;color: #f92672;&quot;&gt;if&lt;/span&gt;&lt;span style=&quot;color: #f8f8f2;&quot;&gt;(&lt;/span&gt;&lt;span style=&quot;color: #fd971f;font-style: italic;&quot;&gt;low&lt;/span&gt;&lt;span style=&quot;color: #f8f8f2;&quot;&gt; &lt;/span&gt;&lt;span style=&quot;color: #f92672;&quot;&gt;&amp;gt;=&lt;/span&gt;&lt;span style=&quot;color: #f8f8f2;&quot;&gt; &lt;/span&gt;&lt;span style=&quot;color: #fd971f;font-style: italic;&quot;&gt;high&lt;/span&gt;&lt;span style=&quot;color: #f8f8f2;&quot;&gt;)&lt;/span&gt;&lt;/div&gt;&lt;div&gt;&lt;span style=&quot;color: #f8f8f2;&quot;&gt;&amp;nbsp; &amp;nbsp; {&lt;/span&gt;&lt;/div&gt;&lt;div&gt;&lt;span style=&quot;color: #f8f8f2;&quot;&gt;&amp;nbsp; &amp;nbsp; &amp;nbsp; &amp;nbsp; &lt;/span&gt;&lt;span style=&quot;color: #f92672;&quot;&gt;return&lt;/span&gt;&lt;span style=&quot;color: #f8f8f2;&quot;&gt;;&lt;/span&gt;&lt;/div&gt;&lt;div&gt;&lt;span style=&quot;color: #f8f8f2;&quot;&gt;&amp;nbsp; &amp;nbsp; }&lt;/span&gt;&lt;/div&gt;&lt;div&gt;&lt;span style=&quot;color: #f8f8f2;&quot;&gt;&amp;nbsp; &amp;nbsp; &lt;/span&gt;&lt;/div&gt;&lt;div&gt;&lt;span style=&quot;color: #f8f8f2;&quot;&gt;&amp;nbsp; &amp;nbsp; &lt;/span&gt;&lt;span style=&quot;color: #66d9ef;font-style: italic;&quot;&gt;int&lt;/span&gt;&lt;span style=&quot;color: #f8f8f2;&quot;&gt; &lt;/span&gt;&lt;span style=&quot;color: #f8f8f2;&quot;&gt;mid&lt;/span&gt;&lt;span style=&quot;color: #f8f8f2;&quot;&gt; &lt;/span&gt;&lt;span style=&quot;color: #f92672;&quot;&gt;=&lt;/span&gt;&lt;span style=&quot;color: #f8f8f2;&quot;&gt; (&lt;/span&gt;&lt;span style=&quot;color: #fd971f;font-style: italic;&quot;&gt;low&lt;/span&gt;&lt;span style=&quot;color: #f92672;&quot;&gt;+&lt;/span&gt;&lt;span style=&quot;color: #fd971f;font-style: italic;&quot;&gt;high&lt;/span&gt;&lt;span style=&quot;color: #f8f8f2;&quot;&gt;) &lt;/span&gt;&lt;span style=&quot;color: #f92672;&quot;&gt;/&lt;/span&gt;&lt;span style=&quot;color: #f8f8f2;&quot;&gt; &lt;/span&gt;&lt;span style=&quot;color: #ae81ff;&quot;&gt;2&lt;/span&gt;&lt;span style=&quot;color: #f8f8f2;&quot;&gt;;&lt;/span&gt;&lt;/div&gt;&lt;br&gt;&lt;div&gt;&lt;span style=&quot;color: #f8f8f2;&quot;&gt;&amp;nbsp; &amp;nbsp; &lt;/span&gt;&lt;span style=&quot;color: #a6e22e;&quot;&gt;merge_sort&lt;/span&gt;&lt;span style=&quot;color: #f8f8f2;&quot;&gt;(&lt;/span&gt;&lt;span style=&quot;color: #fd971f;font-style: italic;&quot;&gt;a&lt;/span&gt;&lt;span style=&quot;color: #f8f8f2;&quot;&gt;, &lt;/span&gt;&lt;span style=&quot;color: #fd971f;font-style: italic;&quot;&gt;low&lt;/span&gt;&lt;span style=&quot;color: #f8f8f2;&quot;&gt;, &lt;/span&gt;&lt;span style=&quot;color: #f8f8f2;&quot;&gt;mid&lt;/span&gt;&lt;span style=&quot;color: #f8f8f2;&quot;&gt;);&lt;/span&gt;&lt;/div&gt;&lt;br&gt;&lt;div&gt;&lt;span style=&quot;color: #f8f8f2;&quot;&gt;&amp;nbsp; &amp;nbsp; &lt;/span&gt;&lt;span style=&quot;color: #a6e22e;&quot;&gt;merge_sort&lt;/span&gt;&lt;span style=&quot;color: #f8f8f2;&quot;&gt;(&lt;/span&gt;&lt;span style=&quot;color: #fd971f;font-style: italic;&quot;&gt;a&lt;/span&gt;&lt;span style=&quot;color: #f8f8f2;&quot;&gt;, &lt;/span&gt;&lt;span style=&quot;color: #f8f8f2;&quot;&gt;mid&lt;/span&gt;&lt;span style=&quot;color: #f92672;&quot;&gt;+&lt;/span&gt;&lt;span style=&quot;color: #ae81ff;&quot;&gt;1&lt;/span&gt;&lt;span style=&quot;color: #f8f8f2;&quot;&gt;, &lt;/span&gt;&lt;span style=&quot;color: #fd971f;font-style: italic;&quot;&gt;high&lt;/span&gt;&lt;span style=&quot;color: #f8f8f2;&quot;&gt;);&lt;/span&gt;&lt;/div&gt;&lt;br&gt;&lt;div&gt;&lt;span style=&quot;color: #f8f8f2;&quot;&gt;&amp;nbsp; &amp;nbsp; &lt;/span&gt;&lt;span style=&quot;color: #a6e22e;&quot;&gt;merge&lt;/span&gt;&lt;span style=&quot;color: #f8f8f2;&quot;&gt;(&lt;/span&gt;&lt;span style=&quot;color: #fd971f;font-style: italic;&quot;&gt;a&lt;/span&gt;&lt;span style=&quot;color: #f8f8f2;&quot;&gt;, &lt;/span&gt;&lt;span style=&quot;color: #fd971f;font-style: italic;&quot;&gt;low&lt;/span&gt;&lt;span style=&quot;color: #f8f8f2;&quot;&gt;, &lt;/span&gt;&lt;span style=&quot;color: #f8f8f2;&quot;&gt;mid&lt;/span&gt;&lt;span style=&quot;color: #f8f8f2;&quot;&gt;, &lt;/span&gt;&lt;span style=&quot;color: #fd971f;font-style: italic;&quot;&gt;high&lt;/span&gt;&lt;span style=&quot;color: #f8f8f2;&quot;&gt;);&lt;/span&gt;&lt;/div&gt;&lt;div&gt;&lt;span style=&quot;color: #f8f8f2;&quot;&gt;}&lt;/span&gt;&lt;/div&gt;&lt;br&gt;&lt;br&gt;&lt;/div&gt;" style="text;whiteSpace=wrap;html=1;" vertex="1" parent="1">
          <mxGeometry x="1490" y="580" width="310" height="330" as="geometry" />
        </mxCell>
        <mxCell id="BF_jYvzkxZM9qKAuG5mS-25" value="&lt;div style=&quot;color: rgb(248, 248, 242); background-color: rgb(39, 40, 34); font-family: Consolas, Consolas, &amp;quot;Courier New&amp;quot;, monospace; font-size: 14px; line-height: 19px; white-space-collapse: preserve;&quot;&gt;&lt;span style=&quot;color: rgb(136, 132, 111);&quot;&gt;{10};&lt;/span&gt;&lt;/div&gt;" style="text;html=1;align=center;verticalAlign=middle;resizable=0;points=[];autosize=1;strokeColor=none;fillColor=none;" vertex="1" parent="1">
          <mxGeometry x="800" y="980" width="60" height="30" as="geometry" />
        </mxCell>
        <mxCell id="BF_jYvzkxZM9qKAuG5mS-27" style="edgeStyle=orthogonalEdgeStyle;rounded=0;orthogonalLoop=1;jettySize=auto;html=1;entryX=0.996;entryY=0.233;entryDx=0;entryDy=0;entryPerimeter=0;" edge="1" parent="1" source="BF_jYvzkxZM9qKAuG5mS-24" target="BF_jYvzkxZM9qKAuG5mS-13">
          <mxGeometry relative="1" as="geometry">
            <Array as="points">
              <mxPoint x="1440" y="745" />
              <mxPoint x="1440" y="397" />
            </Array>
          </mxGeometry>
        </mxCell>
        <mxCell id="BF_jYvzkxZM9qKAuG5mS-29" style="edgeStyle=orthogonalEdgeStyle;rounded=0;orthogonalLoop=1;jettySize=auto;html=1;entryX=0.661;entryY=-0.1;entryDx=0;entryDy=0;entryPerimeter=0;" edge="1" parent="1" source="BF_jYvzkxZM9qKAuG5mS-21" target="BF_jYvzkxZM9qKAuG5mS-25">
          <mxGeometry relative="1" as="geometry" />
        </mxCell>
        <mxCell id="BF_jYvzkxZM9qKAuG5mS-30" value="10" style="text;html=1;align=center;verticalAlign=middle;resizable=0;points=[];autosize=1;strokeColor=none;fillColor=none;" vertex="1" parent="1">
          <mxGeometry x="850" y="1408" width="40" height="30" as="geometry" />
        </mxCell>
        <mxCell id="BF_jYvzkxZM9qKAuG5mS-32" value="&lt;div style=&quot;color: #f8f8f2;background-color: #272822;font-family: Consolas, Consolas, &#39;Courier New&#39;, monospace;font-weight: normal;font-size: 14px;line-height: 19px;white-space: pre;&quot;&gt;&lt;div&gt;&lt;span style=&quot;color: #66d9ef;font-style: italic;&quot;&gt;void&lt;/span&gt;&lt;span style=&quot;color: #f8f8f2;&quot;&gt; &lt;/span&gt;&lt;span style=&quot;color: #a6e22e;&quot;&gt;merge&lt;/span&gt;&lt;span style=&quot;color: #f8f8f2;&quot;&gt;(&lt;/span&gt;&lt;span style=&quot;color: #a6e22e;text-decoration: underline;&quot;&gt;vector&lt;/span&gt;&lt;span style=&quot;color: #f8f8f2;&quot;&gt;&amp;lt;&lt;/span&gt;&lt;span style=&quot;color: #66d9ef;font-style: italic;&quot;&gt;int&lt;/span&gt;&lt;span style=&quot;color: #f8f8f2;&quot;&gt;&amp;gt; &lt;/span&gt;&lt;span style=&quot;color: #f92672;&quot;&gt;&amp;amp;&lt;/span&gt;&lt;span style=&quot;color: #fd971f;font-style: italic;&quot;&gt;a&lt;/span&gt;&lt;span style=&quot;color: #f8f8f2;&quot;&gt;, &lt;/span&gt;&lt;span style=&quot;color: #66d9ef;font-style: italic;&quot;&gt;int&lt;/span&gt;&lt;span style=&quot;color: #f8f8f2;&quot;&gt; &lt;/span&gt;&lt;span style=&quot;color: #fd971f;font-style: italic;&quot;&gt;low&lt;/span&gt;&lt;span style=&quot;color: #f8f8f2;&quot;&gt;, &lt;/span&gt;&lt;span style=&quot;color: #66d9ef;font-style: italic;&quot;&gt;int&lt;/span&gt;&lt;span style=&quot;color: #f8f8f2;&quot;&gt; &lt;/span&gt;&lt;span style=&quot;color: #fd971f;font-style: italic;&quot;&gt;mid&lt;/span&gt;&lt;span style=&quot;color: #f8f8f2;&quot;&gt;, &lt;/span&gt;&lt;span style=&quot;color: #66d9ef;font-style: italic;&quot;&gt;int&lt;/span&gt;&lt;span style=&quot;color: #f8f8f2;&quot;&gt; &lt;/span&gt;&lt;span style=&quot;color: #fd971f;font-style: italic;&quot;&gt;high&lt;/span&gt;&lt;span style=&quot;color: #f8f8f2;&quot;&gt;)&lt;/span&gt;&lt;/div&gt;&lt;div&gt;&lt;span style=&quot;color: #f8f8f2;&quot;&gt;{&lt;/span&gt;&lt;/div&gt;&lt;div&gt;&lt;span style=&quot;color: #f8f8f2;&quot;&gt;&amp;nbsp; &amp;nbsp; &lt;/span&gt;&lt;span style=&quot;color: #a6e22e;text-decoration: underline;&quot;&gt;vector&lt;/span&gt;&lt;span style=&quot;color: #f92672;&quot;&gt;&amp;lt;&lt;/span&gt;&lt;span style=&quot;color: #66d9ef;font-style: italic;&quot;&gt;int&lt;/span&gt;&lt;span style=&quot;color: #f92672;&quot;&gt;&amp;gt;&lt;/span&gt;&lt;span style=&quot;color: #f8f8f2;&quot;&gt; &lt;/span&gt;&lt;span style=&quot;color: #f8f8f2;&quot;&gt;temp&lt;/span&gt;&lt;span style=&quot;color: #f8f8f2;&quot;&gt;;&lt;/span&gt;&lt;/div&gt;&lt;div&gt;&lt;span style=&quot;color: #f8f8f2;&quot;&gt;&amp;nbsp; &amp;nbsp; &lt;/span&gt;&lt;span style=&quot;color: #66d9ef;font-style: italic;&quot;&gt;int&lt;/span&gt;&lt;span style=&quot;color: #f8f8f2;&quot;&gt; &lt;/span&gt;&lt;span style=&quot;color: #f8f8f2;&quot;&gt;left&lt;/span&gt;&lt;span style=&quot;color: #f8f8f2;&quot;&gt; &lt;/span&gt;&lt;span style=&quot;color: #f92672;&quot;&gt;=&lt;/span&gt;&lt;span style=&quot;color: #f8f8f2;&quot;&gt; &lt;/span&gt;&lt;span style=&quot;color: #fd971f;font-style: italic;&quot;&gt;low&lt;/span&gt;&lt;span style=&quot;color: #f8f8f2;&quot;&gt;;&lt;/span&gt;&lt;/div&gt;&lt;div&gt;&lt;span style=&quot;color: #f8f8f2;&quot;&gt;&amp;nbsp; &amp;nbsp; &lt;/span&gt;&lt;span style=&quot;color: #66d9ef;font-style: italic;&quot;&gt;int&lt;/span&gt;&lt;span style=&quot;color: #f8f8f2;&quot;&gt; &lt;/span&gt;&lt;span style=&quot;color: #f8f8f2;&quot;&gt;right&lt;/span&gt;&lt;span style=&quot;color: #f8f8f2;&quot;&gt; &lt;/span&gt;&lt;span style=&quot;color: #f92672;&quot;&gt;=&lt;/span&gt;&lt;span style=&quot;color: #f8f8f2;&quot;&gt; &lt;/span&gt;&lt;span style=&quot;color: #fd971f;font-style: italic;&quot;&gt;mid&lt;/span&gt;&lt;span style=&quot;color: #f92672;&quot;&gt;+&lt;/span&gt;&lt;span style=&quot;color: #ae81ff;&quot;&gt;1&lt;/span&gt;&lt;span style=&quot;color: #f8f8f2;&quot;&gt;;&lt;/span&gt;&lt;/div&gt;&lt;br&gt;&lt;br&gt;&lt;div&gt;&lt;span style=&quot;color: #f8f8f2;&quot;&gt;&amp;nbsp; &amp;nbsp; &lt;/span&gt;&lt;span style=&quot;color: #f92672;&quot;&gt;while&lt;/span&gt;&lt;span style=&quot;color: #f8f8f2;&quot;&gt;(&lt;/span&gt;&lt;span style=&quot;color: #f8f8f2;&quot;&gt;left&lt;/span&gt;&lt;span style=&quot;color: #f8f8f2;&quot;&gt; &lt;/span&gt;&lt;span style=&quot;color: #f92672;&quot;&gt;&amp;lt;=&lt;/span&gt;&lt;span style=&quot;color: #f8f8f2;&quot;&gt; &lt;/span&gt;&lt;span style=&quot;color: #fd971f;font-style: italic;&quot;&gt;mid&lt;/span&gt;&lt;span style=&quot;color: #f8f8f2;&quot;&gt; &lt;/span&gt;&lt;span style=&quot;color: #f92672;&quot;&gt;&amp;amp;&amp;amp;&lt;/span&gt;&lt;span style=&quot;color: #f8f8f2;&quot;&gt; &lt;/span&gt;&lt;span style=&quot;color: #f8f8f2;&quot;&gt;right&lt;/span&gt;&lt;span style=&quot;color: #f8f8f2;&quot;&gt; &lt;/span&gt;&lt;span style=&quot;color: #f92672;&quot;&gt;&amp;lt;=&lt;/span&gt;&lt;span style=&quot;color: #f8f8f2;&quot;&gt; &lt;/span&gt;&lt;span style=&quot;color: #fd971f;font-style: italic;&quot;&gt;high&lt;/span&gt;&lt;span style=&quot;color: #f8f8f2;&quot;&gt;)&lt;/span&gt;&lt;/div&gt;&lt;div&gt;&lt;span style=&quot;color: #f8f8f2;&quot;&gt;&amp;nbsp; &amp;nbsp; {&lt;/span&gt;&lt;/div&gt;&lt;div&gt;&lt;span style=&quot;color: #f8f8f2;&quot;&gt;&amp;nbsp; &amp;nbsp; &amp;nbsp; &amp;nbsp; &lt;/span&gt;&lt;span style=&quot;color: #f92672;&quot;&gt;if&lt;/span&gt;&lt;span style=&quot;color: #f8f8f2;&quot;&gt;(&lt;/span&gt;&lt;span style=&quot;color: #fd971f;font-style: italic;&quot;&gt;a&lt;/span&gt;&lt;span style=&quot;color: #a6e22e;&quot;&gt;[&lt;/span&gt;&lt;span style=&quot;color: #f8f8f2;&quot;&gt;left&lt;/span&gt;&lt;span style=&quot;color: #a6e22e;&quot;&gt;]&lt;/span&gt;&lt;span style=&quot;color: #f8f8f2;&quot;&gt; &lt;/span&gt;&lt;span style=&quot;color: #f92672;&quot;&gt;&amp;lt;=&lt;/span&gt;&lt;span style=&quot;color: #f8f8f2;&quot;&gt; &lt;/span&gt;&lt;span style=&quot;color: #fd971f;font-style: italic;&quot;&gt;a&lt;/span&gt;&lt;span style=&quot;color: #a6e22e;&quot;&gt;[&lt;/span&gt;&lt;span style=&quot;color: #f8f8f2;&quot;&gt;right&lt;/span&gt;&lt;span style=&quot;color: #a6e22e;&quot;&gt;]&lt;/span&gt;&lt;span style=&quot;color: #f8f8f2;&quot;&gt;)&lt;/span&gt;&lt;/div&gt;&lt;div&gt;&lt;span style=&quot;color: #f8f8f2;&quot;&gt;&amp;nbsp; &amp;nbsp; &amp;nbsp; &amp;nbsp; {&lt;/span&gt;&lt;/div&gt;&lt;div&gt;&lt;span style=&quot;color: #f8f8f2;&quot;&gt;&amp;nbsp; &amp;nbsp; &amp;nbsp; &amp;nbsp; &amp;nbsp; &amp;nbsp; &lt;/span&gt;&lt;span style=&quot;color: #f8f8f2;&quot;&gt;temp&lt;/span&gt;&lt;span style=&quot;color: #f8f8f2;&quot;&gt;.&lt;/span&gt;&lt;span style=&quot;color: #a6e22e;&quot;&gt;push_back&lt;/span&gt;&lt;span style=&quot;color: #f8f8f2;&quot;&gt;(&lt;/span&gt;&lt;span style=&quot;color: #fd971f;font-style: italic;&quot;&gt;a&lt;/span&gt;&lt;span style=&quot;color: #a6e22e;&quot;&gt;[&lt;/span&gt;&lt;span style=&quot;color: #f8f8f2;&quot;&gt;left&lt;/span&gt;&lt;span style=&quot;color: #a6e22e;&quot;&gt;]&lt;/span&gt;&lt;span style=&quot;color: #f8f8f2;&quot;&gt;);&lt;/span&gt;&lt;/div&gt;&lt;div&gt;&lt;span style=&quot;color: #f8f8f2;&quot;&gt;&amp;nbsp; &amp;nbsp; &amp;nbsp; &amp;nbsp; &amp;nbsp; &amp;nbsp; &lt;/span&gt;&lt;span style=&quot;color: #f8f8f2;&quot;&gt;left&lt;/span&gt;&lt;span style=&quot;color: #f92672;&quot;&gt;++&lt;/span&gt;&lt;span style=&quot;color: #f8f8f2;&quot;&gt;;&lt;/span&gt;&lt;/div&gt;&lt;div&gt;&lt;span style=&quot;color: #f8f8f2;&quot;&gt;&amp;nbsp; &amp;nbsp; &amp;nbsp; &amp;nbsp; }&lt;/span&gt;&lt;/div&gt;&lt;div&gt;&lt;span style=&quot;color: #f8f8f2;&quot;&gt;&amp;nbsp; &amp;nbsp; &amp;nbsp;&lt;/span&gt;&lt;span style=&quot;color: #f92672;&quot;&gt;else&lt;/span&gt;&lt;span style=&quot;color: #f8f8f2;&quot;&gt;{&lt;/span&gt;&lt;/div&gt;&lt;div&gt;&lt;span style=&quot;color: #f8f8f2;&quot;&gt;&amp;nbsp; &amp;nbsp; &amp;nbsp; &amp;nbsp;&lt;/span&gt;&lt;span style=&quot;color: #f8f8f2;&quot;&gt;temp&lt;/span&gt;&lt;span style=&quot;color: #f8f8f2;&quot;&gt;.&lt;/span&gt;&lt;span style=&quot;color: #a6e22e;&quot;&gt;push_back&lt;/span&gt;&lt;span style=&quot;color: #f8f8f2;&quot;&gt;(&lt;/span&gt;&lt;span style=&quot;color: #fd971f;font-style: italic;&quot;&gt;a&lt;/span&gt;&lt;span style=&quot;color: #a6e22e;&quot;&gt;[&lt;/span&gt;&lt;span style=&quot;color: #f8f8f2;&quot;&gt;right&lt;/span&gt;&lt;span style=&quot;color: #a6e22e;&quot;&gt;]&lt;/span&gt;&lt;span style=&quot;color: #f8f8f2;&quot;&gt;);&lt;/span&gt;&lt;/div&gt;&lt;div&gt;&lt;span style=&quot;color: #f8f8f2;&quot;&gt;&amp;nbsp; &amp;nbsp; &amp;nbsp; &amp;nbsp;&lt;/span&gt;&lt;span style=&quot;color: #f8f8f2;&quot;&gt;right&lt;/span&gt;&lt;span style=&quot;color: #f92672;&quot;&gt;++&lt;/span&gt;&lt;span style=&quot;color: #f8f8f2;&quot;&gt;; &lt;/span&gt;&lt;/div&gt;&lt;div&gt;&lt;span style=&quot;color: #f8f8f2;&quot;&gt;&amp;nbsp; &amp;nbsp; &amp;nbsp; &amp;nbsp; }&lt;/span&gt;&lt;/div&gt;&lt;div&gt;&lt;span style=&quot;color: #f8f8f2;&quot;&gt;&amp;nbsp; &amp;nbsp; }&lt;/span&gt;&lt;/div&gt;&lt;div&gt;&lt;span style=&quot;color: #f8f8f2;&quot;&gt;&amp;nbsp; &lt;/span&gt;&lt;/div&gt;&lt;br&gt;&lt;div&gt;&lt;span style=&quot;color: #f8f8f2;&quot;&gt;&amp;nbsp; &amp;nbsp; &lt;/span&gt;&lt;span style=&quot;color: #f92672;&quot;&gt;while&lt;/span&gt;&lt;span style=&quot;color: #f8f8f2;&quot;&gt;(&lt;/span&gt;&lt;span style=&quot;color: #f8f8f2;&quot;&gt;left&lt;/span&gt;&lt;span style=&quot;color: #f8f8f2;&quot;&gt; &lt;/span&gt;&lt;span style=&quot;color: #f92672;&quot;&gt;&amp;lt;=&lt;/span&gt;&lt;span style=&quot;color: #f8f8f2;&quot;&gt; &lt;/span&gt;&lt;span style=&quot;color: #fd971f;font-style: italic;&quot;&gt;mid&lt;/span&gt;&lt;span style=&quot;color: #f8f8f2;&quot;&gt;)&lt;/span&gt;&lt;/div&gt;&lt;div&gt;&lt;span style=&quot;color: #f8f8f2;&quot;&gt;&amp;nbsp; &amp;nbsp; {&lt;/span&gt;&lt;/div&gt;&lt;div&gt;&lt;span style=&quot;color: #f8f8f2;&quot;&gt;&amp;nbsp; &amp;nbsp; &amp;nbsp; &amp;nbsp; &lt;/span&gt;&lt;span style=&quot;color: #f8f8f2;&quot;&gt;temp&lt;/span&gt;&lt;span style=&quot;color: #f8f8f2;&quot;&gt;.&lt;/span&gt;&lt;span style=&quot;color: #a6e22e;&quot;&gt;push_back&lt;/span&gt;&lt;span style=&quot;color: #f8f8f2;&quot;&gt;(&lt;/span&gt;&lt;span style=&quot;color: #fd971f;font-style: italic;&quot;&gt;a&lt;/span&gt;&lt;span style=&quot;color: #a6e22e;&quot;&gt;[&lt;/span&gt;&lt;span style=&quot;color: #f8f8f2;&quot;&gt;left&lt;/span&gt;&lt;span style=&quot;color: #a6e22e;&quot;&gt;]&lt;/span&gt;&lt;span style=&quot;color: #f8f8f2;&quot;&gt;);&lt;/span&gt;&lt;/div&gt;&lt;div&gt;&lt;span style=&quot;color: #f8f8f2;&quot;&gt;&amp;nbsp; &amp;nbsp; &amp;nbsp; &amp;nbsp; &lt;/span&gt;&lt;span style=&quot;color: #f8f8f2;&quot;&gt;left&lt;/span&gt;&lt;span style=&quot;color: #f92672;&quot;&gt;++&lt;/span&gt;&lt;span style=&quot;color: #f8f8f2;&quot;&gt;;&lt;/span&gt;&lt;/div&gt;&lt;div&gt;&lt;span style=&quot;color: #f8f8f2;&quot;&gt;&amp;nbsp; &amp;nbsp; }&lt;/span&gt;&lt;/div&gt;&lt;br&gt;&lt;div&gt;&lt;span style=&quot;color: #f8f8f2;&quot;&gt;&amp;nbsp; &amp;nbsp; &lt;/span&gt;&lt;span style=&quot;color: #f92672;&quot;&gt;while&lt;/span&gt;&lt;span style=&quot;color: #f8f8f2;&quot;&gt;(&lt;/span&gt;&lt;span style=&quot;color: #f8f8f2;&quot;&gt;right&lt;/span&gt;&lt;span style=&quot;color: #f8f8f2;&quot;&gt; &lt;/span&gt;&lt;span style=&quot;color: #f92672;&quot;&gt;&amp;lt;=&lt;/span&gt;&lt;span style=&quot;color: #f8f8f2;&quot;&gt; &lt;/span&gt;&lt;span style=&quot;color: #fd971f;font-style: italic;&quot;&gt;high&lt;/span&gt;&lt;span style=&quot;color: #f8f8f2;&quot;&gt;)&lt;/span&gt;&lt;/div&gt;&lt;div&gt;&lt;span style=&quot;color: #f8f8f2;&quot;&gt;&amp;nbsp; &amp;nbsp; {&lt;/span&gt;&lt;/div&gt;&lt;div&gt;&lt;span style=&quot;color: #f8f8f2;&quot;&gt;&amp;nbsp; &amp;nbsp; &amp;nbsp; &amp;nbsp; &lt;/span&gt;&lt;span style=&quot;color: #f8f8f2;&quot;&gt;temp&lt;/span&gt;&lt;span style=&quot;color: #f8f8f2;&quot;&gt;.&lt;/span&gt;&lt;span style=&quot;color: #a6e22e;&quot;&gt;push_back&lt;/span&gt;&lt;span style=&quot;color: #f8f8f2;&quot;&gt;(&lt;/span&gt;&lt;span style=&quot;color: #fd971f;font-style: italic;&quot;&gt;a&lt;/span&gt;&lt;span style=&quot;color: #a6e22e;&quot;&gt;[&lt;/span&gt;&lt;span style=&quot;color: #f8f8f2;&quot;&gt;right&lt;/span&gt;&lt;span style=&quot;color: #a6e22e;&quot;&gt;]&lt;/span&gt;&lt;span style=&quot;color: #f8f8f2;&quot;&gt;);&lt;/span&gt;&lt;/div&gt;&lt;div&gt;&lt;span style=&quot;color: #f8f8f2;&quot;&gt;&amp;nbsp; &amp;nbsp; &amp;nbsp; &amp;nbsp; &lt;/span&gt;&lt;span style=&quot;color: #f8f8f2;&quot;&gt;right&lt;/span&gt;&lt;span style=&quot;color: #f92672;&quot;&gt;++&lt;/span&gt;&lt;span style=&quot;color: #f8f8f2;&quot;&gt;;&lt;/span&gt;&lt;/div&gt;&lt;div&gt;&lt;span style=&quot;color: #f8f8f2;&quot;&gt;&amp;nbsp; &amp;nbsp; }&lt;/span&gt;&lt;/div&gt;&lt;br&gt;&lt;br&gt;&lt;div&gt;&lt;span style=&quot;color: #f8f8f2;&quot;&gt;&amp;nbsp; &amp;nbsp; &lt;/span&gt;&lt;span style=&quot;color: #f92672;&quot;&gt;for&lt;/span&gt;&lt;span style=&quot;color: #f8f8f2;&quot;&gt;(&lt;/span&gt;&lt;span style=&quot;color: #66d9ef;font-style: italic;&quot;&gt;int&lt;/span&gt;&lt;span style=&quot;color: #f8f8f2;&quot;&gt; &lt;/span&gt;&lt;span style=&quot;color: #f8f8f2;&quot;&gt;i&lt;/span&gt;&lt;span style=&quot;color: #f92672;&quot;&gt;=&lt;/span&gt;&lt;span style=&quot;color: #fd971f;font-style: italic;&quot;&gt;low&lt;/span&gt;&lt;span style=&quot;color: #f8f8f2;&quot;&gt;; &lt;/span&gt;&lt;span style=&quot;color: #f8f8f2;&quot;&gt;i&lt;/span&gt;&lt;span style=&quot;color: #f92672;&quot;&gt;&amp;lt;=&lt;/span&gt;&lt;span style=&quot;color: #fd971f;font-style: italic;&quot;&gt;high&lt;/span&gt;&lt;span style=&quot;color: #f8f8f2;&quot;&gt;; &lt;/span&gt;&lt;span style=&quot;color: #f8f8f2;&quot;&gt;i&lt;/span&gt;&lt;span style=&quot;color: #f92672;&quot;&gt;++&lt;/span&gt;&lt;span style=&quot;color: #f8f8f2;&quot;&gt;)&lt;/span&gt;&lt;/div&gt;&lt;div&gt;&lt;span style=&quot;color: #f8f8f2;&quot;&gt;&amp;nbsp; &amp;nbsp; {&lt;/span&gt;&lt;/div&gt;&lt;div&gt;&lt;span style=&quot;color: #f8f8f2;&quot;&gt;&amp;nbsp; &amp;nbsp; &amp;nbsp; &amp;nbsp; &lt;/span&gt;&lt;span style=&quot;color: #fd971f;font-style: italic;&quot;&gt;a&lt;/span&gt;&lt;span style=&quot;color: #a6e22e;&quot;&gt;[&lt;/span&gt;&lt;span style=&quot;color: #f8f8f2;&quot;&gt;i&lt;/span&gt;&lt;span style=&quot;color: #a6e22e;&quot;&gt;]&lt;/span&gt;&lt;span style=&quot;color: #f8f8f2;&quot;&gt; &lt;/span&gt;&lt;span style=&quot;color: #f92672;&quot;&gt;=&lt;/span&gt;&lt;span style=&quot;color: #f8f8f2;&quot;&gt; &lt;/span&gt;&lt;span style=&quot;color: #f8f8f2;&quot;&gt;temp&lt;/span&gt;&lt;span style=&quot;color: #a6e22e;&quot;&gt;[&lt;/span&gt;&lt;span style=&quot;color: #f8f8f2;&quot;&gt;i&lt;/span&gt;&lt;span style=&quot;color: #f92672;&quot;&gt;-&lt;/span&gt;&lt;span style=&quot;color: #fd971f;font-style: italic;&quot;&gt;low&lt;/span&gt;&lt;span style=&quot;color: #a6e22e;&quot;&gt;]&lt;/span&gt;&lt;span style=&quot;color: #f8f8f2;&quot;&gt;;&lt;/span&gt;&lt;/div&gt;&lt;div&gt;&lt;span style=&quot;color: #f8f8f2;&quot;&gt;&amp;nbsp; &amp;nbsp; }&lt;/span&gt;&lt;/div&gt;&lt;br&gt;&lt;br&gt;&lt;div&gt;&lt;span style=&quot;color: #f8f8f2;&quot;&gt;&amp;nbsp; &amp;nbsp; &amp;nbsp; &amp;nbsp;&lt;/span&gt;&lt;/div&gt;&lt;br&gt;&lt;div&gt;&lt;span style=&quot;color: #f8f8f2;&quot;&gt;}&lt;/span&gt;&lt;/div&gt;&lt;/div&gt;" style="text;whiteSpace=wrap;html=1;" vertex="1" parent="1">
          <mxGeometry x="770" y="-760" width="450" height="840" as="geometry" />
        </mxCell>
        <mxCell id="BF_jYvzkxZM9qKAuG5mS-35" value="Text" style="text;html=1;align=center;verticalAlign=middle;resizable=0;points=[];autosize=1;strokeColor=none;fillColor=none;" vertex="1" parent="1">
          <mxGeometry x="320" y="300" width="50" height="30" as="geometry" />
        </mxCell>
        <mxCell id="BF_jYvzkxZM9qKAuG5mS-36" style="edgeStyle=orthogonalEdgeStyle;rounded=0;orthogonalLoop=1;jettySize=auto;html=1;entryX=-0.001;entryY=0.46;entryDx=0;entryDy=0;entryPerimeter=0;" edge="1" parent="1" source="BF_jYvzkxZM9qKAuG5mS-35" target="BF_jYvzkxZM9qKAuG5mS-32">
          <mxGeometry relative="1" as="geometry" />
        </mxCell>
        <mxCell id="BF_jYvzkxZM9qKAuG5mS-37" value="0, 3,&amp;nbsp;" style="text;html=1;align=center;verticalAlign=middle;resizable=0;points=[];autosize=1;strokeColor=none;fillColor=none;" vertex="1" parent="1">
          <mxGeometry x="825" y="-812" width="50" height="30" as="geometry" />
        </mxCell>
        <mxCell id="BF_jYvzkxZM9qKAuG5mS-39" style="edgeStyle=orthogonalEdgeStyle;rounded=0;orthogonalLoop=1;jettySize=auto;html=1;" edge="1" parent="1" source="BF_jYvzkxZM9qKAuG5mS-38" target="BF_jYvzkxZM9qKAuG5mS-12">
          <mxGeometry relative="1" as="geometry" />
        </mxCell>
        <mxCell id="BF_jYvzkxZM9qKAuG5mS-38" value="&lt;div style=&quot;color: #f8f8f2;background-color: #272822;font-family: Consolas, Consolas, &#39;Courier New&#39;, monospace;font-weight: normal;font-size: 14px;line-height: 19px;white-space: pre;&quot;&gt;&lt;div&gt;&lt;span style=&quot;color: #66d9ef;font-style: italic;&quot;&gt;void&lt;/span&gt;&lt;span style=&quot;color: #f8f8f2;&quot;&gt; &lt;/span&gt;&lt;span style=&quot;color: #a6e22e;&quot;&gt;merge&lt;/span&gt;&lt;span style=&quot;color: #f8f8f2;&quot;&gt;(&lt;/span&gt;&lt;span style=&quot;color: #a6e22e;text-decoration: underline;&quot;&gt;vector&lt;/span&gt;&lt;span style=&quot;color: #f8f8f2;&quot;&gt;&amp;lt;&lt;/span&gt;&lt;span style=&quot;color: #66d9ef;font-style: italic;&quot;&gt;int&lt;/span&gt;&lt;span style=&quot;color: #f8f8f2;&quot;&gt;&amp;gt; &lt;/span&gt;&lt;span style=&quot;color: #f92672;&quot;&gt;&amp;amp;&lt;/span&gt;&lt;span style=&quot;color: #fd971f;font-style: italic;&quot;&gt;a&lt;/span&gt;&lt;span style=&quot;color: #f8f8f2;&quot;&gt;, &lt;/span&gt;&lt;span style=&quot;color: #66d9ef;font-style: italic;&quot;&gt;int&lt;/span&gt;&lt;span style=&quot;color: #f8f8f2;&quot;&gt; &lt;/span&gt;&lt;span style=&quot;color: #fd971f;font-style: italic;&quot;&gt;low&lt;/span&gt;&lt;span style=&quot;color: #f8f8f2;&quot;&gt;, &lt;/span&gt;&lt;span style=&quot;color: #66d9ef;font-style: italic;&quot;&gt;int&lt;/span&gt;&lt;span style=&quot;color: #f8f8f2;&quot;&gt; &lt;/span&gt;&lt;span style=&quot;color: #fd971f;font-style: italic;&quot;&gt;mid&lt;/span&gt;&lt;span style=&quot;color: #f8f8f2;&quot;&gt;, &lt;/span&gt;&lt;span style=&quot;color: #66d9ef;font-style: italic;&quot;&gt;int&lt;/span&gt;&lt;span style=&quot;color: #f8f8f2;&quot;&gt; &lt;/span&gt;&lt;span style=&quot;color: #fd971f;font-style: italic;&quot;&gt;high&lt;/span&gt;&lt;span style=&quot;color: #f8f8f2;&quot;&gt;)&lt;/span&gt;&lt;/div&gt;&lt;div&gt;&lt;span style=&quot;color: #f8f8f2;&quot;&gt;{&lt;/span&gt;&lt;/div&gt;&lt;div&gt;&lt;span style=&quot;color: #f8f8f2;&quot;&gt;&amp;nbsp; &amp;nbsp; &lt;/span&gt;&lt;span style=&quot;color: #a6e22e;text-decoration: underline;&quot;&gt;vector&lt;/span&gt;&lt;span style=&quot;color: #f92672;&quot;&gt;&amp;lt;&lt;/span&gt;&lt;span style=&quot;color: #66d9ef;font-style: italic;&quot;&gt;int&lt;/span&gt;&lt;span style=&quot;color: #f92672;&quot;&gt;&amp;gt;&lt;/span&gt;&lt;span style=&quot;color: #f8f8f2;&quot;&gt; &lt;/span&gt;&lt;span style=&quot;color: #f8f8f2;&quot;&gt;temp&lt;/span&gt;&lt;span style=&quot;color: #f8f8f2;&quot;&gt;;&lt;/span&gt;&lt;/div&gt;&lt;div&gt;&lt;span style=&quot;color: #f8f8f2;&quot;&gt;&amp;nbsp; &amp;nbsp; &lt;/span&gt;&lt;span style=&quot;color: #66d9ef;font-style: italic;&quot;&gt;int&lt;/span&gt;&lt;span style=&quot;color: #f8f8f2;&quot;&gt; &lt;/span&gt;&lt;span style=&quot;color: #f8f8f2;&quot;&gt;left&lt;/span&gt;&lt;span style=&quot;color: #f8f8f2;&quot;&gt; &lt;/span&gt;&lt;span style=&quot;color: #f92672;&quot;&gt;=&lt;/span&gt;&lt;span style=&quot;color: #f8f8f2;&quot;&gt; &lt;/span&gt;&lt;span style=&quot;color: #fd971f;font-style: italic;&quot;&gt;low&lt;/span&gt;&lt;span style=&quot;color: #f8f8f2;&quot;&gt;;&lt;/span&gt;&lt;/div&gt;&lt;div&gt;&lt;span style=&quot;color: #f8f8f2;&quot;&gt;&amp;nbsp; &amp;nbsp; &lt;/span&gt;&lt;span style=&quot;color: #66d9ef;font-style: italic;&quot;&gt;int&lt;/span&gt;&lt;span style=&quot;color: #f8f8f2;&quot;&gt; &lt;/span&gt;&lt;span style=&quot;color: #f8f8f2;&quot;&gt;right&lt;/span&gt;&lt;span style=&quot;color: #f8f8f2;&quot;&gt; &lt;/span&gt;&lt;span style=&quot;color: #f92672;&quot;&gt;=&lt;/span&gt;&lt;span style=&quot;color: #f8f8f2;&quot;&gt; &lt;/span&gt;&lt;span style=&quot;color: #fd971f;font-style: italic;&quot;&gt;mid&lt;/span&gt;&lt;span style=&quot;color: #f92672;&quot;&gt;+&lt;/span&gt;&lt;span style=&quot;color: #ae81ff;&quot;&gt;1&lt;/span&gt;&lt;span style=&quot;color: #f8f8f2;&quot;&gt;;&lt;/span&gt;&lt;/div&gt;&lt;br&gt;&lt;br&gt;&lt;div&gt;&lt;span style=&quot;color: #f8f8f2;&quot;&gt;&amp;nbsp; &amp;nbsp; &lt;/span&gt;&lt;span style=&quot;color: #f92672;&quot;&gt;while&lt;/span&gt;&lt;span style=&quot;color: #f8f8f2;&quot;&gt;(&lt;/span&gt;&lt;span style=&quot;color: #f8f8f2;&quot;&gt;left&lt;/span&gt;&lt;span style=&quot;color: #f8f8f2;&quot;&gt; &lt;/span&gt;&lt;span style=&quot;color: #f92672;&quot;&gt;&amp;lt;=&lt;/span&gt;&lt;span style=&quot;color: #f8f8f2;&quot;&gt; &lt;/span&gt;&lt;span style=&quot;color: #fd971f;font-style: italic;&quot;&gt;mid&lt;/span&gt;&lt;span style=&quot;color: #f8f8f2;&quot;&gt; &lt;/span&gt;&lt;span style=&quot;color: #f92672;&quot;&gt;&amp;amp;&amp;amp;&lt;/span&gt;&lt;span style=&quot;color: #f8f8f2;&quot;&gt; &lt;/span&gt;&lt;span style=&quot;color: #f8f8f2;&quot;&gt;right&lt;/span&gt;&lt;span style=&quot;color: #f8f8f2;&quot;&gt; &lt;/span&gt;&lt;span style=&quot;color: #f92672;&quot;&gt;&amp;lt;=&lt;/span&gt;&lt;span style=&quot;color: #f8f8f2;&quot;&gt; &lt;/span&gt;&lt;span style=&quot;color: #fd971f;font-style: italic;&quot;&gt;high&lt;/span&gt;&lt;span style=&quot;color: #f8f8f2;&quot;&gt;)&lt;/span&gt;&lt;/div&gt;&lt;div&gt;&lt;span style=&quot;color: #f8f8f2;&quot;&gt;&amp;nbsp; &amp;nbsp; {&lt;/span&gt;&lt;/div&gt;&lt;div&gt;&lt;span style=&quot;color: #f8f8f2;&quot;&gt;&amp;nbsp; &amp;nbsp; &amp;nbsp; &amp;nbsp; &lt;/span&gt;&lt;span style=&quot;color: #f92672;&quot;&gt;if&lt;/span&gt;&lt;span style=&quot;color: #f8f8f2;&quot;&gt;(&lt;/span&gt;&lt;span style=&quot;color: #fd971f;font-style: italic;&quot;&gt;a&lt;/span&gt;&lt;span style=&quot;color: #a6e22e;&quot;&gt;[&lt;/span&gt;&lt;span style=&quot;color: #f8f8f2;&quot;&gt;left&lt;/span&gt;&lt;span style=&quot;color: #a6e22e;&quot;&gt;]&lt;/span&gt;&lt;span style=&quot;color: #f8f8f2;&quot;&gt; &lt;/span&gt;&lt;span style=&quot;color: #f92672;&quot;&gt;&amp;lt;=&lt;/span&gt;&lt;span style=&quot;color: #f8f8f2;&quot;&gt; &lt;/span&gt;&lt;span style=&quot;color: #fd971f;font-style: italic;&quot;&gt;a&lt;/span&gt;&lt;span style=&quot;color: #a6e22e;&quot;&gt;[&lt;/span&gt;&lt;span style=&quot;color: #f8f8f2;&quot;&gt;right&lt;/span&gt;&lt;span style=&quot;color: #a6e22e;&quot;&gt;]&lt;/span&gt;&lt;span style=&quot;color: #f8f8f2;&quot;&gt;)&lt;/span&gt;&lt;/div&gt;&lt;div&gt;&lt;span style=&quot;color: #f8f8f2;&quot;&gt;&amp;nbsp; &amp;nbsp; &amp;nbsp; &amp;nbsp; {&lt;/span&gt;&lt;/div&gt;&lt;div&gt;&lt;span style=&quot;color: #f8f8f2;&quot;&gt;&amp;nbsp; &amp;nbsp; &amp;nbsp; &amp;nbsp; &amp;nbsp; &amp;nbsp; &lt;/span&gt;&lt;span style=&quot;color: #f8f8f2;&quot;&gt;temp&lt;/span&gt;&lt;span style=&quot;color: #f8f8f2;&quot;&gt;.&lt;/span&gt;&lt;span style=&quot;color: #a6e22e;&quot;&gt;push_back&lt;/span&gt;&lt;span style=&quot;color: #f8f8f2;&quot;&gt;(&lt;/span&gt;&lt;span style=&quot;color: #fd971f;font-style: italic;&quot;&gt;a&lt;/span&gt;&lt;span style=&quot;color: #a6e22e;&quot;&gt;[&lt;/span&gt;&lt;span style=&quot;color: #f8f8f2;&quot;&gt;left&lt;/span&gt;&lt;span style=&quot;color: #a6e22e;&quot;&gt;]&lt;/span&gt;&lt;span style=&quot;color: #f8f8f2;&quot;&gt;);&lt;/span&gt;&lt;/div&gt;&lt;div&gt;&lt;span style=&quot;color: #f8f8f2;&quot;&gt;&amp;nbsp; &amp;nbsp; &amp;nbsp; &amp;nbsp; &amp;nbsp; &amp;nbsp; &lt;/span&gt;&lt;span style=&quot;color: #f8f8f2;&quot;&gt;left&lt;/span&gt;&lt;span style=&quot;color: #f92672;&quot;&gt;++&lt;/span&gt;&lt;span style=&quot;color: #f8f8f2;&quot;&gt;;&lt;/span&gt;&lt;/div&gt;&lt;div&gt;&lt;span style=&quot;color: #f8f8f2;&quot;&gt;&amp;nbsp; &amp;nbsp; &amp;nbsp; &amp;nbsp; }&lt;/span&gt;&lt;/div&gt;&lt;div&gt;&lt;span style=&quot;color: #f8f8f2;&quot;&gt;&amp;nbsp; &amp;nbsp; &amp;nbsp;&lt;/span&gt;&lt;span style=&quot;color: #f92672;&quot;&gt;else&lt;/span&gt;&lt;span style=&quot;color: #f8f8f2;&quot;&gt;{&lt;/span&gt;&lt;/div&gt;&lt;div&gt;&lt;span style=&quot;color: #f8f8f2;&quot;&gt;&amp;nbsp; &amp;nbsp; &amp;nbsp; &amp;nbsp;&lt;/span&gt;&lt;span style=&quot;color: #f8f8f2;&quot;&gt;temp&lt;/span&gt;&lt;span style=&quot;color: #f8f8f2;&quot;&gt;.&lt;/span&gt;&lt;span style=&quot;color: #a6e22e;&quot;&gt;push_back&lt;/span&gt;&lt;span style=&quot;color: #f8f8f2;&quot;&gt;(&lt;/span&gt;&lt;span style=&quot;color: #fd971f;font-style: italic;&quot;&gt;a&lt;/span&gt;&lt;span style=&quot;color: #a6e22e;&quot;&gt;[&lt;/span&gt;&lt;span style=&quot;color: #f8f8f2;&quot;&gt;right&lt;/span&gt;&lt;span style=&quot;color: #a6e22e;&quot;&gt;]&lt;/span&gt;&lt;span style=&quot;color: #f8f8f2;&quot;&gt;);&lt;/span&gt;&lt;/div&gt;&lt;div&gt;&lt;span style=&quot;color: #f8f8f2;&quot;&gt;&amp;nbsp; &amp;nbsp; &amp;nbsp; &amp;nbsp;&lt;/span&gt;&lt;span style=&quot;color: #f8f8f2;&quot;&gt;right&lt;/span&gt;&lt;span style=&quot;color: #f92672;&quot;&gt;++&lt;/span&gt;&lt;span style=&quot;color: #f8f8f2;&quot;&gt;; &lt;/span&gt;&lt;/div&gt;&lt;div&gt;&lt;span style=&quot;color: #f8f8f2;&quot;&gt;&amp;nbsp; &amp;nbsp; &amp;nbsp; &amp;nbsp; }&lt;/span&gt;&lt;/div&gt;&lt;div&gt;&lt;span style=&quot;color: #f8f8f2;&quot;&gt;&amp;nbsp; &amp;nbsp; }&lt;/span&gt;&lt;/div&gt;&lt;div&gt;&lt;span style=&quot;color: #f8f8f2;&quot;&gt;&amp;nbsp; &lt;/span&gt;&lt;/div&gt;&lt;br&gt;&lt;div&gt;&lt;span style=&quot;color: #f8f8f2;&quot;&gt;&amp;nbsp; &amp;nbsp; &lt;/span&gt;&lt;span style=&quot;color: #f92672;&quot;&gt;while&lt;/span&gt;&lt;span style=&quot;color: #f8f8f2;&quot;&gt;(&lt;/span&gt;&lt;span style=&quot;color: #f8f8f2;&quot;&gt;left&lt;/span&gt;&lt;span style=&quot;color: #f8f8f2;&quot;&gt; &lt;/span&gt;&lt;span style=&quot;color: #f92672;&quot;&gt;&amp;lt;=&lt;/span&gt;&lt;span style=&quot;color: #f8f8f2;&quot;&gt; &lt;/span&gt;&lt;span style=&quot;color: #fd971f;font-style: italic;&quot;&gt;mid&lt;/span&gt;&lt;span style=&quot;color: #f8f8f2;&quot;&gt;)&lt;/span&gt;&lt;/div&gt;&lt;div&gt;&lt;span style=&quot;color: #f8f8f2;&quot;&gt;&amp;nbsp; &amp;nbsp; {&lt;/span&gt;&lt;/div&gt;&lt;div&gt;&lt;span style=&quot;color: #f8f8f2;&quot;&gt;&amp;nbsp; &amp;nbsp; &amp;nbsp; &amp;nbsp; &lt;/span&gt;&lt;span style=&quot;color: #f8f8f2;&quot;&gt;temp&lt;/span&gt;&lt;span style=&quot;color: #f8f8f2;&quot;&gt;.&lt;/span&gt;&lt;span style=&quot;color: #a6e22e;&quot;&gt;push_back&lt;/span&gt;&lt;span style=&quot;color: #f8f8f2;&quot;&gt;(&lt;/span&gt;&lt;span style=&quot;color: #fd971f;font-style: italic;&quot;&gt;a&lt;/span&gt;&lt;span style=&quot;color: #a6e22e;&quot;&gt;[&lt;/span&gt;&lt;span style=&quot;color: #f8f8f2;&quot;&gt;left&lt;/span&gt;&lt;span style=&quot;color: #a6e22e;&quot;&gt;]&lt;/span&gt;&lt;span style=&quot;color: #f8f8f2;&quot;&gt;);&lt;/span&gt;&lt;/div&gt;&lt;div&gt;&lt;span style=&quot;color: #f8f8f2;&quot;&gt;&amp;nbsp; &amp;nbsp; &amp;nbsp; &amp;nbsp; &lt;/span&gt;&lt;span style=&quot;color: #f8f8f2;&quot;&gt;left&lt;/span&gt;&lt;span style=&quot;color: #f92672;&quot;&gt;++&lt;/span&gt;&lt;span style=&quot;color: #f8f8f2;&quot;&gt;;&lt;/span&gt;&lt;/div&gt;&lt;div&gt;&lt;span style=&quot;color: #f8f8f2;&quot;&gt;&amp;nbsp; &amp;nbsp; }&lt;/span&gt;&lt;/div&gt;&lt;br&gt;&lt;div&gt;&lt;span style=&quot;color: #f8f8f2;&quot;&gt;&amp;nbsp; &amp;nbsp; &lt;/span&gt;&lt;span style=&quot;color: #f92672;&quot;&gt;while&lt;/span&gt;&lt;span style=&quot;color: #f8f8f2;&quot;&gt;(&lt;/span&gt;&lt;span style=&quot;color: #f8f8f2;&quot;&gt;right&lt;/span&gt;&lt;span style=&quot;color: #f8f8f2;&quot;&gt; &lt;/span&gt;&lt;span style=&quot;color: #f92672;&quot;&gt;&amp;lt;=&lt;/span&gt;&lt;span style=&quot;color: #f8f8f2;&quot;&gt; &lt;/span&gt;&lt;span style=&quot;color: #fd971f;font-style: italic;&quot;&gt;high&lt;/span&gt;&lt;span style=&quot;color: #f8f8f2;&quot;&gt;)&lt;/span&gt;&lt;/div&gt;&lt;div&gt;&lt;span style=&quot;color: #f8f8f2;&quot;&gt;&amp;nbsp; &amp;nbsp; {&lt;/span&gt;&lt;/div&gt;&lt;div&gt;&lt;span style=&quot;color: #f8f8f2;&quot;&gt;&amp;nbsp; &amp;nbsp; &amp;nbsp; &amp;nbsp; &lt;/span&gt;&lt;span style=&quot;color: #f8f8f2;&quot;&gt;temp&lt;/span&gt;&lt;span style=&quot;color: #f8f8f2;&quot;&gt;.&lt;/span&gt;&lt;span style=&quot;color: #a6e22e;&quot;&gt;push_back&lt;/span&gt;&lt;span style=&quot;color: #f8f8f2;&quot;&gt;(&lt;/span&gt;&lt;span style=&quot;color: #fd971f;font-style: italic;&quot;&gt;a&lt;/span&gt;&lt;span style=&quot;color: #a6e22e;&quot;&gt;[&lt;/span&gt;&lt;span style=&quot;color: #f8f8f2;&quot;&gt;right&lt;/span&gt;&lt;span style=&quot;color: #a6e22e;&quot;&gt;]&lt;/span&gt;&lt;span style=&quot;color: #f8f8f2;&quot;&gt;);&lt;/span&gt;&lt;/div&gt;&lt;div&gt;&lt;span style=&quot;color: #f8f8f2;&quot;&gt;&amp;nbsp; &amp;nbsp; &amp;nbsp; &amp;nbsp; &lt;/span&gt;&lt;span style=&quot;color: #f8f8f2;&quot;&gt;right&lt;/span&gt;&lt;span style=&quot;color: #f92672;&quot;&gt;++&lt;/span&gt;&lt;span style=&quot;color: #f8f8f2;&quot;&gt;;&lt;/span&gt;&lt;/div&gt;&lt;div&gt;&lt;span style=&quot;color: #f8f8f2;&quot;&gt;&amp;nbsp; &amp;nbsp; }&lt;/span&gt;&lt;/div&gt;&lt;br&gt;&lt;br&gt;&lt;div&gt;&lt;span style=&quot;color: #f8f8f2;&quot;&gt;&amp;nbsp; &amp;nbsp; &lt;/span&gt;&lt;span style=&quot;color: #f92672;&quot;&gt;for&lt;/span&gt;&lt;span style=&quot;color: #f8f8f2;&quot;&gt;(&lt;/span&gt;&lt;span style=&quot;color: #66d9ef;font-style: italic;&quot;&gt;int&lt;/span&gt;&lt;span style=&quot;color: #f8f8f2;&quot;&gt; &lt;/span&gt;&lt;span style=&quot;color: #f8f8f2;&quot;&gt;i&lt;/span&gt;&lt;span style=&quot;color: #f92672;&quot;&gt;=&lt;/span&gt;&lt;span style=&quot;color: #fd971f;font-style: italic;&quot;&gt;low&lt;/span&gt;&lt;span style=&quot;color: #f8f8f2;&quot;&gt;; &lt;/span&gt;&lt;span style=&quot;color: #f8f8f2;&quot;&gt;i&lt;/span&gt;&lt;span style=&quot;color: #f92672;&quot;&gt;&amp;lt;=&lt;/span&gt;&lt;span style=&quot;color: #fd971f;font-style: italic;&quot;&gt;high&lt;/span&gt;&lt;span style=&quot;color: #f8f8f2;&quot;&gt;; &lt;/span&gt;&lt;span style=&quot;color: #f8f8f2;&quot;&gt;i&lt;/span&gt;&lt;span style=&quot;color: #f92672;&quot;&gt;++&lt;/span&gt;&lt;span style=&quot;color: #f8f8f2;&quot;&gt;)&lt;/span&gt;&lt;/div&gt;&lt;div&gt;&lt;span style=&quot;color: #f8f8f2;&quot;&gt;&amp;nbsp; &amp;nbsp; {&lt;/span&gt;&lt;/div&gt;&lt;div&gt;&lt;span style=&quot;color: #f8f8f2;&quot;&gt;&amp;nbsp; &amp;nbsp; &amp;nbsp; &amp;nbsp; &lt;/span&gt;&lt;span style=&quot;color: #fd971f;font-style: italic;&quot;&gt;a&lt;/span&gt;&lt;span style=&quot;color: #a6e22e;&quot;&gt;[&lt;/span&gt;&lt;span style=&quot;color: #f8f8f2;&quot;&gt;i&lt;/span&gt;&lt;span style=&quot;color: #a6e22e;&quot;&gt;]&lt;/span&gt;&lt;span style=&quot;color: #f8f8f2;&quot;&gt; &lt;/span&gt;&lt;span style=&quot;color: #f92672;&quot;&gt;=&lt;/span&gt;&lt;span style=&quot;color: #f8f8f2;&quot;&gt; &lt;/span&gt;&lt;span style=&quot;color: #f8f8f2;&quot;&gt;temp&lt;/span&gt;&lt;span style=&quot;color: #a6e22e;&quot;&gt;[&lt;/span&gt;&lt;span style=&quot;color: #f8f8f2;&quot;&gt;i&lt;/span&gt;&lt;span style=&quot;color: #f92672;&quot;&gt;-&lt;/span&gt;&lt;span style=&quot;color: #fd971f;font-style: italic;&quot;&gt;low&lt;/span&gt;&lt;span style=&quot;color: #a6e22e;&quot;&gt;]&lt;/span&gt;&lt;span style=&quot;color: #f8f8f2;&quot;&gt;;&lt;/span&gt;&lt;/div&gt;&lt;div&gt;&lt;span style=&quot;color: #f8f8f2;&quot;&gt;&amp;nbsp; &amp;nbsp; }&lt;/span&gt;&lt;/div&gt;&lt;br&gt;&lt;br&gt;&lt;div&gt;&lt;span style=&quot;color: #f8f8f2;&quot;&gt;&amp;nbsp; &amp;nbsp; &amp;nbsp; &amp;nbsp;&lt;/span&gt;&lt;/div&gt;&lt;br&gt;&lt;div&gt;&lt;span style=&quot;color: #f8f8f2;&quot;&gt;}&lt;/span&gt;&lt;/div&gt;&lt;/div&gt;" style="text;whiteSpace=wrap;html=1;" vertex="1" parent="1">
          <mxGeometry x="1950" y="1040" width="450" height="840" as="geometry" />
        </mxCell>
        <mxCell id="BF_jYvzkxZM9qKAuG5mS-41" style="edgeStyle=orthogonalEdgeStyle;rounded=0;orthogonalLoop=1;jettySize=auto;html=1;" edge="1" parent="1" source="BF_jYvzkxZM9qKAuG5mS-40" target="BF_jYvzkxZM9qKAuG5mS-16">
          <mxGeometry relative="1" as="geometry" />
        </mxCell>
        <mxCell id="BF_jYvzkxZM9qKAuG5mS-40" value="&lt;div style=&quot;color: #f8f8f2;background-color: #272822;font-family: Consolas, Consolas, &#39;Courier New&#39;, monospace;font-weight: normal;font-size: 14px;line-height: 19px;white-space: pre;&quot;&gt;&lt;div&gt;&lt;span style=&quot;color: #66d9ef;font-style: italic;&quot;&gt;void&lt;/span&gt;&lt;span style=&quot;color: #f8f8f2;&quot;&gt; &lt;/span&gt;&lt;span style=&quot;color: #a6e22e;&quot;&gt;merge&lt;/span&gt;&lt;span style=&quot;color: #f8f8f2;&quot;&gt;(&lt;/span&gt;&lt;span style=&quot;color: #a6e22e;text-decoration: underline;&quot;&gt;vector&lt;/span&gt;&lt;span style=&quot;color: #f8f8f2;&quot;&gt;&amp;lt;&lt;/span&gt;&lt;span style=&quot;color: #66d9ef;font-style: italic;&quot;&gt;int&lt;/span&gt;&lt;span style=&quot;color: #f8f8f2;&quot;&gt;&amp;gt; &lt;/span&gt;&lt;span style=&quot;color: #f92672;&quot;&gt;&amp;amp;&lt;/span&gt;&lt;span style=&quot;color: #fd971f;font-style: italic;&quot;&gt;a&lt;/span&gt;&lt;span style=&quot;color: #f8f8f2;&quot;&gt;, &lt;/span&gt;&lt;span style=&quot;color: #66d9ef;font-style: italic;&quot;&gt;int&lt;/span&gt;&lt;span style=&quot;color: #f8f8f2;&quot;&gt; &lt;/span&gt;&lt;span style=&quot;color: #fd971f;font-style: italic;&quot;&gt;low&lt;/span&gt;&lt;span style=&quot;color: #f8f8f2;&quot;&gt;, &lt;/span&gt;&lt;span style=&quot;color: #66d9ef;font-style: italic;&quot;&gt;int&lt;/span&gt;&lt;span style=&quot;color: #f8f8f2;&quot;&gt; &lt;/span&gt;&lt;span style=&quot;color: #fd971f;font-style: italic;&quot;&gt;mid&lt;/span&gt;&lt;span style=&quot;color: #f8f8f2;&quot;&gt;, &lt;/span&gt;&lt;span style=&quot;color: #66d9ef;font-style: italic;&quot;&gt;int&lt;/span&gt;&lt;span style=&quot;color: #f8f8f2;&quot;&gt; &lt;/span&gt;&lt;span style=&quot;color: #fd971f;font-style: italic;&quot;&gt;high&lt;/span&gt;&lt;span style=&quot;color: #f8f8f2;&quot;&gt;)&lt;/span&gt;&lt;/div&gt;&lt;div&gt;&lt;span style=&quot;color: #f8f8f2;&quot;&gt;{&lt;/span&gt;&lt;/div&gt;&lt;div&gt;&lt;span style=&quot;color: #f8f8f2;&quot;&gt;&amp;nbsp; &amp;nbsp; &lt;/span&gt;&lt;span style=&quot;color: #a6e22e;text-decoration: underline;&quot;&gt;vector&lt;/span&gt;&lt;span style=&quot;color: #f92672;&quot;&gt;&amp;lt;&lt;/span&gt;&lt;span style=&quot;color: #66d9ef;font-style: italic;&quot;&gt;int&lt;/span&gt;&lt;span style=&quot;color: #f92672;&quot;&gt;&amp;gt;&lt;/span&gt;&lt;span style=&quot;color: #f8f8f2;&quot;&gt; &lt;/span&gt;&lt;span style=&quot;color: #f8f8f2;&quot;&gt;temp&lt;/span&gt;&lt;span style=&quot;color: #f8f8f2;&quot;&gt;;&lt;/span&gt;&lt;/div&gt;&lt;div&gt;&lt;span style=&quot;color: #f8f8f2;&quot;&gt;&amp;nbsp; &amp;nbsp; &lt;/span&gt;&lt;span style=&quot;color: #66d9ef;font-style: italic;&quot;&gt;int&lt;/span&gt;&lt;span style=&quot;color: #f8f8f2;&quot;&gt; &lt;/span&gt;&lt;span style=&quot;color: #f8f8f2;&quot;&gt;left&lt;/span&gt;&lt;span style=&quot;color: #f8f8f2;&quot;&gt; &lt;/span&gt;&lt;span style=&quot;color: #f92672;&quot;&gt;=&lt;/span&gt;&lt;span style=&quot;color: #f8f8f2;&quot;&gt; &lt;/span&gt;&lt;span style=&quot;color: #fd971f;font-style: italic;&quot;&gt;low&lt;/span&gt;&lt;span style=&quot;color: #f8f8f2;&quot;&gt;;&lt;/span&gt;&lt;/div&gt;&lt;div&gt;&lt;span style=&quot;color: #f8f8f2;&quot;&gt;&amp;nbsp; &amp;nbsp; &lt;/span&gt;&lt;span style=&quot;color: #66d9ef;font-style: italic;&quot;&gt;int&lt;/span&gt;&lt;span style=&quot;color: #f8f8f2;&quot;&gt; &lt;/span&gt;&lt;span style=&quot;color: #f8f8f2;&quot;&gt;right&lt;/span&gt;&lt;span style=&quot;color: #f8f8f2;&quot;&gt; &lt;/span&gt;&lt;span style=&quot;color: #f92672;&quot;&gt;=&lt;/span&gt;&lt;span style=&quot;color: #f8f8f2;&quot;&gt; &lt;/span&gt;&lt;span style=&quot;color: #fd971f;font-style: italic;&quot;&gt;mid&lt;/span&gt;&lt;span style=&quot;color: #f92672;&quot;&gt;+&lt;/span&gt;&lt;span style=&quot;color: #ae81ff;&quot;&gt;1&lt;/span&gt;&lt;span style=&quot;color: #f8f8f2;&quot;&gt;;&lt;/span&gt;&lt;/div&gt;&lt;br&gt;&lt;br&gt;&lt;div&gt;&lt;span style=&quot;color: #f8f8f2;&quot;&gt;&amp;nbsp; &amp;nbsp; &lt;/span&gt;&lt;span style=&quot;color: #f92672;&quot;&gt;while&lt;/span&gt;&lt;span style=&quot;color: #f8f8f2;&quot;&gt;(&lt;/span&gt;&lt;span style=&quot;color: #f8f8f2;&quot;&gt;left&lt;/span&gt;&lt;span style=&quot;color: #f8f8f2;&quot;&gt; &lt;/span&gt;&lt;span style=&quot;color: #f92672;&quot;&gt;&amp;lt;=&lt;/span&gt;&lt;span style=&quot;color: #f8f8f2;&quot;&gt; &lt;/span&gt;&lt;span style=&quot;color: #fd971f;font-style: italic;&quot;&gt;mid&lt;/span&gt;&lt;span style=&quot;color: #f8f8f2;&quot;&gt; &lt;/span&gt;&lt;span style=&quot;color: #f92672;&quot;&gt;&amp;amp;&amp;amp;&lt;/span&gt;&lt;span style=&quot;color: #f8f8f2;&quot;&gt; &lt;/span&gt;&lt;span style=&quot;color: #f8f8f2;&quot;&gt;right&lt;/span&gt;&lt;span style=&quot;color: #f8f8f2;&quot;&gt; &lt;/span&gt;&lt;span style=&quot;color: #f92672;&quot;&gt;&amp;lt;=&lt;/span&gt;&lt;span style=&quot;color: #f8f8f2;&quot;&gt; &lt;/span&gt;&lt;span style=&quot;color: #fd971f;font-style: italic;&quot;&gt;high&lt;/span&gt;&lt;span style=&quot;color: #f8f8f2;&quot;&gt;)&lt;/span&gt;&lt;/div&gt;&lt;div&gt;&lt;span style=&quot;color: #f8f8f2;&quot;&gt;&amp;nbsp; &amp;nbsp; {&lt;/span&gt;&lt;/div&gt;&lt;div&gt;&lt;span style=&quot;color: #f8f8f2;&quot;&gt;&amp;nbsp; &amp;nbsp; &amp;nbsp; &amp;nbsp; &lt;/span&gt;&lt;span style=&quot;color: #f92672;&quot;&gt;if&lt;/span&gt;&lt;span style=&quot;color: #f8f8f2;&quot;&gt;(&lt;/span&gt;&lt;span style=&quot;color: #fd971f;font-style: italic;&quot;&gt;a&lt;/span&gt;&lt;span style=&quot;color: #a6e22e;&quot;&gt;[&lt;/span&gt;&lt;span style=&quot;color: #f8f8f2;&quot;&gt;left&lt;/span&gt;&lt;span style=&quot;color: #a6e22e;&quot;&gt;]&lt;/span&gt;&lt;span style=&quot;color: #f8f8f2;&quot;&gt; &lt;/span&gt;&lt;span style=&quot;color: #f92672;&quot;&gt;&amp;lt;=&lt;/span&gt;&lt;span style=&quot;color: #f8f8f2;&quot;&gt; &lt;/span&gt;&lt;span style=&quot;color: #fd971f;font-style: italic;&quot;&gt;a&lt;/span&gt;&lt;span style=&quot;color: #a6e22e;&quot;&gt;[&lt;/span&gt;&lt;span style=&quot;color: #f8f8f2;&quot;&gt;right&lt;/span&gt;&lt;span style=&quot;color: #a6e22e;&quot;&gt;]&lt;/span&gt;&lt;span style=&quot;color: #f8f8f2;&quot;&gt;)&lt;/span&gt;&lt;/div&gt;&lt;div&gt;&lt;span style=&quot;color: #f8f8f2;&quot;&gt;&amp;nbsp; &amp;nbsp; &amp;nbsp; &amp;nbsp; {&lt;/span&gt;&lt;/div&gt;&lt;div&gt;&lt;span style=&quot;color: #f8f8f2;&quot;&gt;&amp;nbsp; &amp;nbsp; &amp;nbsp; &amp;nbsp; &amp;nbsp; &amp;nbsp; &lt;/span&gt;&lt;span style=&quot;color: #f8f8f2;&quot;&gt;temp&lt;/span&gt;&lt;span style=&quot;color: #f8f8f2;&quot;&gt;.&lt;/span&gt;&lt;span style=&quot;color: #a6e22e;&quot;&gt;push_back&lt;/span&gt;&lt;span style=&quot;color: #f8f8f2;&quot;&gt;(&lt;/span&gt;&lt;span style=&quot;color: #fd971f;font-style: italic;&quot;&gt;a&lt;/span&gt;&lt;span style=&quot;color: #a6e22e;&quot;&gt;[&lt;/span&gt;&lt;span style=&quot;color: #f8f8f2;&quot;&gt;left&lt;/span&gt;&lt;span style=&quot;color: #a6e22e;&quot;&gt;]&lt;/span&gt;&lt;span style=&quot;color: #f8f8f2;&quot;&gt;);&lt;/span&gt;&lt;/div&gt;&lt;div&gt;&lt;span style=&quot;color: #f8f8f2;&quot;&gt;&amp;nbsp; &amp;nbsp; &amp;nbsp; &amp;nbsp; &amp;nbsp; &amp;nbsp; &lt;/span&gt;&lt;span style=&quot;color: #f8f8f2;&quot;&gt;left&lt;/span&gt;&lt;span style=&quot;color: #f92672;&quot;&gt;++&lt;/span&gt;&lt;span style=&quot;color: #f8f8f2;&quot;&gt;;&lt;/span&gt;&lt;/div&gt;&lt;div&gt;&lt;span style=&quot;color: #f8f8f2;&quot;&gt;&amp;nbsp; &amp;nbsp; &amp;nbsp; &amp;nbsp; }&lt;/span&gt;&lt;/div&gt;&lt;div&gt;&lt;span style=&quot;color: #f8f8f2;&quot;&gt;&amp;nbsp; &amp;nbsp; &amp;nbsp;&lt;/span&gt;&lt;span style=&quot;color: #f92672;&quot;&gt;else&lt;/span&gt;&lt;span style=&quot;color: #f8f8f2;&quot;&gt;{&lt;/span&gt;&lt;/div&gt;&lt;div&gt;&lt;span style=&quot;color: #f8f8f2;&quot;&gt;&amp;nbsp; &amp;nbsp; &amp;nbsp; &amp;nbsp;&lt;/span&gt;&lt;span style=&quot;color: #f8f8f2;&quot;&gt;temp&lt;/span&gt;&lt;span style=&quot;color: #f8f8f2;&quot;&gt;.&lt;/span&gt;&lt;span style=&quot;color: #a6e22e;&quot;&gt;push_back&lt;/span&gt;&lt;span style=&quot;color: #f8f8f2;&quot;&gt;(&lt;/span&gt;&lt;span style=&quot;color: #fd971f;font-style: italic;&quot;&gt;a&lt;/span&gt;&lt;span style=&quot;color: #a6e22e;&quot;&gt;[&lt;/span&gt;&lt;span style=&quot;color: #f8f8f2;&quot;&gt;right&lt;/span&gt;&lt;span style=&quot;color: #a6e22e;&quot;&gt;]&lt;/span&gt;&lt;span style=&quot;color: #f8f8f2;&quot;&gt;);&lt;/span&gt;&lt;/div&gt;&lt;div&gt;&lt;span style=&quot;color: #f8f8f2;&quot;&gt;&amp;nbsp; &amp;nbsp; &amp;nbsp; &amp;nbsp;&lt;/span&gt;&lt;span style=&quot;color: #f8f8f2;&quot;&gt;right&lt;/span&gt;&lt;span style=&quot;color: #f92672;&quot;&gt;++&lt;/span&gt;&lt;span style=&quot;color: #f8f8f2;&quot;&gt;; &lt;/span&gt;&lt;/div&gt;&lt;div&gt;&lt;span style=&quot;color: #f8f8f2;&quot;&gt;&amp;nbsp; &amp;nbsp; &amp;nbsp; &amp;nbsp; }&lt;/span&gt;&lt;/div&gt;&lt;div&gt;&lt;span style=&quot;color: #f8f8f2;&quot;&gt;&amp;nbsp; &amp;nbsp; }&lt;/span&gt;&lt;/div&gt;&lt;div&gt;&lt;span style=&quot;color: #f8f8f2;&quot;&gt;&amp;nbsp; &lt;/span&gt;&lt;/div&gt;&lt;br&gt;&lt;div&gt;&lt;span style=&quot;color: #f8f8f2;&quot;&gt;&amp;nbsp; &amp;nbsp; &lt;/span&gt;&lt;span style=&quot;color: #f92672;&quot;&gt;while&lt;/span&gt;&lt;span style=&quot;color: #f8f8f2;&quot;&gt;(&lt;/span&gt;&lt;span style=&quot;color: #f8f8f2;&quot;&gt;left&lt;/span&gt;&lt;span style=&quot;color: #f8f8f2;&quot;&gt; &lt;/span&gt;&lt;span style=&quot;color: #f92672;&quot;&gt;&amp;lt;=&lt;/span&gt;&lt;span style=&quot;color: #f8f8f2;&quot;&gt; &lt;/span&gt;&lt;span style=&quot;color: #fd971f;font-style: italic;&quot;&gt;mid&lt;/span&gt;&lt;span style=&quot;color: #f8f8f2;&quot;&gt;)&lt;/span&gt;&lt;/div&gt;&lt;div&gt;&lt;span style=&quot;color: #f8f8f2;&quot;&gt;&amp;nbsp; &amp;nbsp; {&lt;/span&gt;&lt;/div&gt;&lt;div&gt;&lt;span style=&quot;color: #f8f8f2;&quot;&gt;&amp;nbsp; &amp;nbsp; &amp;nbsp; &amp;nbsp; &lt;/span&gt;&lt;span style=&quot;color: #f8f8f2;&quot;&gt;temp&lt;/span&gt;&lt;span style=&quot;color: #f8f8f2;&quot;&gt;.&lt;/span&gt;&lt;span style=&quot;color: #a6e22e;&quot;&gt;push_back&lt;/span&gt;&lt;span style=&quot;color: #f8f8f2;&quot;&gt;(&lt;/span&gt;&lt;span style=&quot;color: #fd971f;font-style: italic;&quot;&gt;a&lt;/span&gt;&lt;span style=&quot;color: #a6e22e;&quot;&gt;[&lt;/span&gt;&lt;span style=&quot;color: #f8f8f2;&quot;&gt;left&lt;/span&gt;&lt;span style=&quot;color: #a6e22e;&quot;&gt;]&lt;/span&gt;&lt;span style=&quot;color: #f8f8f2;&quot;&gt;);&lt;/span&gt;&lt;/div&gt;&lt;div&gt;&lt;span style=&quot;color: #f8f8f2;&quot;&gt;&amp;nbsp; &amp;nbsp; &amp;nbsp; &amp;nbsp; &lt;/span&gt;&lt;span style=&quot;color: #f8f8f2;&quot;&gt;left&lt;/span&gt;&lt;span style=&quot;color: #f92672;&quot;&gt;++&lt;/span&gt;&lt;span style=&quot;color: #f8f8f2;&quot;&gt;;&lt;/span&gt;&lt;/div&gt;&lt;div&gt;&lt;span style=&quot;color: #f8f8f2;&quot;&gt;&amp;nbsp; &amp;nbsp; }&lt;/span&gt;&lt;/div&gt;&lt;br&gt;&lt;div&gt;&lt;span style=&quot;color: #f8f8f2;&quot;&gt;&amp;nbsp; &amp;nbsp; &lt;/span&gt;&lt;span style=&quot;color: #f92672;&quot;&gt;while&lt;/span&gt;&lt;span style=&quot;color: #f8f8f2;&quot;&gt;(&lt;/span&gt;&lt;span style=&quot;color: #f8f8f2;&quot;&gt;right&lt;/span&gt;&lt;span style=&quot;color: #f8f8f2;&quot;&gt; &lt;/span&gt;&lt;span style=&quot;color: #f92672;&quot;&gt;&amp;lt;=&lt;/span&gt;&lt;span style=&quot;color: #f8f8f2;&quot;&gt; &lt;/span&gt;&lt;span style=&quot;color: #fd971f;font-style: italic;&quot;&gt;high&lt;/span&gt;&lt;span style=&quot;color: #f8f8f2;&quot;&gt;)&lt;/span&gt;&lt;/div&gt;&lt;div&gt;&lt;span style=&quot;color: #f8f8f2;&quot;&gt;&amp;nbsp; &amp;nbsp; {&lt;/span&gt;&lt;/div&gt;&lt;div&gt;&lt;span style=&quot;color: #f8f8f2;&quot;&gt;&amp;nbsp; &amp;nbsp; &amp;nbsp; &amp;nbsp; &lt;/span&gt;&lt;span style=&quot;color: #f8f8f2;&quot;&gt;temp&lt;/span&gt;&lt;span style=&quot;color: #f8f8f2;&quot;&gt;.&lt;/span&gt;&lt;span style=&quot;color: #a6e22e;&quot;&gt;push_back&lt;/span&gt;&lt;span style=&quot;color: #f8f8f2;&quot;&gt;(&lt;/span&gt;&lt;span style=&quot;color: #fd971f;font-style: italic;&quot;&gt;a&lt;/span&gt;&lt;span style=&quot;color: #a6e22e;&quot;&gt;[&lt;/span&gt;&lt;span style=&quot;color: #f8f8f2;&quot;&gt;right&lt;/span&gt;&lt;span style=&quot;color: #a6e22e;&quot;&gt;]&lt;/span&gt;&lt;span style=&quot;color: #f8f8f2;&quot;&gt;);&lt;/span&gt;&lt;/div&gt;&lt;div&gt;&lt;span style=&quot;color: #f8f8f2;&quot;&gt;&amp;nbsp; &amp;nbsp; &amp;nbsp; &amp;nbsp; &lt;/span&gt;&lt;span style=&quot;color: #f8f8f2;&quot;&gt;right&lt;/span&gt;&lt;span style=&quot;color: #f92672;&quot;&gt;++&lt;/span&gt;&lt;span style=&quot;color: #f8f8f2;&quot;&gt;;&lt;/span&gt;&lt;/div&gt;&lt;div&gt;&lt;span style=&quot;color: #f8f8f2;&quot;&gt;&amp;nbsp; &amp;nbsp; }&lt;/span&gt;&lt;/div&gt;&lt;br&gt;&lt;br&gt;&lt;div&gt;&lt;span style=&quot;color: #f8f8f2;&quot;&gt;&amp;nbsp; &amp;nbsp; &lt;/span&gt;&lt;span style=&quot;color: #f92672;&quot;&gt;for&lt;/span&gt;&lt;span style=&quot;color: #f8f8f2;&quot;&gt;(&lt;/span&gt;&lt;span style=&quot;color: #66d9ef;font-style: italic;&quot;&gt;int&lt;/span&gt;&lt;span style=&quot;color: #f8f8f2;&quot;&gt; &lt;/span&gt;&lt;span style=&quot;color: #f8f8f2;&quot;&gt;i&lt;/span&gt;&lt;span style=&quot;color: #f92672;&quot;&gt;=&lt;/span&gt;&lt;span style=&quot;color: #fd971f;font-style: italic;&quot;&gt;low&lt;/span&gt;&lt;span style=&quot;color: #f8f8f2;&quot;&gt;; &lt;/span&gt;&lt;span style=&quot;color: #f8f8f2;&quot;&gt;i&lt;/span&gt;&lt;span style=&quot;color: #f92672;&quot;&gt;&amp;lt;=&lt;/span&gt;&lt;span style=&quot;color: #fd971f;font-style: italic;&quot;&gt;high&lt;/span&gt;&lt;span style=&quot;color: #f8f8f2;&quot;&gt;; &lt;/span&gt;&lt;span style=&quot;color: #f8f8f2;&quot;&gt;i&lt;/span&gt;&lt;span style=&quot;color: #f92672;&quot;&gt;++&lt;/span&gt;&lt;span style=&quot;color: #f8f8f2;&quot;&gt;)&lt;/span&gt;&lt;/div&gt;&lt;div&gt;&lt;span style=&quot;color: #f8f8f2;&quot;&gt;&amp;nbsp; &amp;nbsp; {&lt;/span&gt;&lt;/div&gt;&lt;div&gt;&lt;span style=&quot;color: #f8f8f2;&quot;&gt;&amp;nbsp; &amp;nbsp; &amp;nbsp; &amp;nbsp; &lt;/span&gt;&lt;span style=&quot;color: #fd971f;font-style: italic;&quot;&gt;a&lt;/span&gt;&lt;span style=&quot;color: #a6e22e;&quot;&gt;[&lt;/span&gt;&lt;span style=&quot;color: #f8f8f2;&quot;&gt;i&lt;/span&gt;&lt;span style=&quot;color: #a6e22e;&quot;&gt;]&lt;/span&gt;&lt;span style=&quot;color: #f8f8f2;&quot;&gt; &lt;/span&gt;&lt;span style=&quot;color: #f92672;&quot;&gt;=&lt;/span&gt;&lt;span style=&quot;color: #f8f8f2;&quot;&gt; &lt;/span&gt;&lt;span style=&quot;color: #f8f8f2;&quot;&gt;temp&lt;/span&gt;&lt;span style=&quot;color: #a6e22e;&quot;&gt;[&lt;/span&gt;&lt;span style=&quot;color: #f8f8f2;&quot;&gt;i&lt;/span&gt;&lt;span style=&quot;color: #f92672;&quot;&gt;-&lt;/span&gt;&lt;span style=&quot;color: #fd971f;font-style: italic;&quot;&gt;low&lt;/span&gt;&lt;span style=&quot;color: #a6e22e;&quot;&gt;]&lt;/span&gt;&lt;span style=&quot;color: #f8f8f2;&quot;&gt;;&lt;/span&gt;&lt;/div&gt;&lt;div&gt;&lt;span style=&quot;color: #f8f8f2;&quot;&gt;&amp;nbsp; &amp;nbsp; }&lt;/span&gt;&lt;/div&gt;&lt;br&gt;&lt;br&gt;&lt;div&gt;&lt;span style=&quot;color: #f8f8f2;&quot;&gt;&amp;nbsp; &amp;nbsp; &amp;nbsp; &amp;nbsp;&lt;/span&gt;&lt;/div&gt;&lt;br&gt;&lt;div&gt;&lt;span style=&quot;color: #f8f8f2;&quot;&gt;}&lt;/span&gt;&lt;/div&gt;&lt;/div&gt;" style="text;whiteSpace=wrap;html=1;" vertex="1" parent="1">
          <mxGeometry x="150" y="1350" width="450" height="840" as="geometry" />
        </mxCell>
        <mxCell id="BF_jYvzkxZM9qKAuG5mS-43" style="edgeStyle=orthogonalEdgeStyle;rounded=0;orthogonalLoop=1;jettySize=auto;html=1;" edge="1" parent="1" source="BF_jYvzkxZM9qKAuG5mS-42">
          <mxGeometry relative="1" as="geometry">
            <mxPoint x="920" y="1370" as="targetPoint" />
          </mxGeometry>
        </mxCell>
        <mxCell id="BF_jYvzkxZM9qKAuG5mS-42" value="&lt;div style=&quot;color: #f8f8f2;background-color: #272822;font-family: Consolas, Consolas, &#39;Courier New&#39;, monospace;font-weight: normal;font-size: 14px;line-height: 19px;white-space: pre;&quot;&gt;&lt;div&gt;&lt;span style=&quot;color: #66d9ef;font-style: italic;&quot;&gt;void&lt;/span&gt;&lt;span style=&quot;color: #f8f8f2;&quot;&gt; &lt;/span&gt;&lt;span style=&quot;color: #a6e22e;&quot;&gt;merge&lt;/span&gt;&lt;span style=&quot;color: #f8f8f2;&quot;&gt;(&lt;/span&gt;&lt;span style=&quot;color: #a6e22e;text-decoration: underline;&quot;&gt;vector&lt;/span&gt;&lt;span style=&quot;color: #f8f8f2;&quot;&gt;&amp;lt;&lt;/span&gt;&lt;span style=&quot;color: #66d9ef;font-style: italic;&quot;&gt;int&lt;/span&gt;&lt;span style=&quot;color: #f8f8f2;&quot;&gt;&amp;gt; &lt;/span&gt;&lt;span style=&quot;color: #f92672;&quot;&gt;&amp;amp;&lt;/span&gt;&lt;span style=&quot;color: #fd971f;font-style: italic;&quot;&gt;a&lt;/span&gt;&lt;span style=&quot;color: #f8f8f2;&quot;&gt;, &lt;/span&gt;&lt;span style=&quot;color: #66d9ef;font-style: italic;&quot;&gt;int&lt;/span&gt;&lt;span style=&quot;color: #f8f8f2;&quot;&gt; &lt;/span&gt;&lt;span style=&quot;color: #fd971f;font-style: italic;&quot;&gt;low&lt;/span&gt;&lt;span style=&quot;color: #f8f8f2;&quot;&gt;, &lt;/span&gt;&lt;span style=&quot;color: #66d9ef;font-style: italic;&quot;&gt;int&lt;/span&gt;&lt;span style=&quot;color: #f8f8f2;&quot;&gt; &lt;/span&gt;&lt;span style=&quot;color: #fd971f;font-style: italic;&quot;&gt;mid&lt;/span&gt;&lt;span style=&quot;color: #f8f8f2;&quot;&gt;, &lt;/span&gt;&lt;span style=&quot;color: #66d9ef;font-style: italic;&quot;&gt;int&lt;/span&gt;&lt;span style=&quot;color: #f8f8f2;&quot;&gt; &lt;/span&gt;&lt;span style=&quot;color: #fd971f;font-style: italic;&quot;&gt;high&lt;/span&gt;&lt;span style=&quot;color: #f8f8f2;&quot;&gt;)&lt;/span&gt;&lt;/div&gt;&lt;div&gt;&lt;span style=&quot;color: #f8f8f2;&quot;&gt;{&lt;/span&gt;&lt;/div&gt;&lt;div&gt;&lt;span style=&quot;color: #f8f8f2;&quot;&gt;&amp;nbsp; &amp;nbsp; &lt;/span&gt;&lt;span style=&quot;color: #a6e22e;text-decoration: underline;&quot;&gt;vector&lt;/span&gt;&lt;span style=&quot;color: #f92672;&quot;&gt;&amp;lt;&lt;/span&gt;&lt;span style=&quot;color: #66d9ef;font-style: italic;&quot;&gt;int&lt;/span&gt;&lt;span style=&quot;color: #f92672;&quot;&gt;&amp;gt;&lt;/span&gt;&lt;span style=&quot;color: #f8f8f2;&quot;&gt; &lt;/span&gt;&lt;span style=&quot;color: #f8f8f2;&quot;&gt;temp&lt;/span&gt;&lt;span style=&quot;color: #f8f8f2;&quot;&gt;;&lt;/span&gt;&lt;/div&gt;&lt;div&gt;&lt;span style=&quot;color: #f8f8f2;&quot;&gt;&amp;nbsp; &amp;nbsp; &lt;/span&gt;&lt;span style=&quot;color: #66d9ef;font-style: italic;&quot;&gt;int&lt;/span&gt;&lt;span style=&quot;color: #f8f8f2;&quot;&gt; &lt;/span&gt;&lt;span style=&quot;color: #f8f8f2;&quot;&gt;left&lt;/span&gt;&lt;span style=&quot;color: #f8f8f2;&quot;&gt; &lt;/span&gt;&lt;span style=&quot;color: #f92672;&quot;&gt;=&lt;/span&gt;&lt;span style=&quot;color: #f8f8f2;&quot;&gt; &lt;/span&gt;&lt;span style=&quot;color: #fd971f;font-style: italic;&quot;&gt;low&lt;/span&gt;&lt;span style=&quot;color: #f8f8f2;&quot;&gt;;&lt;/span&gt;&lt;/div&gt;&lt;div&gt;&lt;span style=&quot;color: #f8f8f2;&quot;&gt;&amp;nbsp; &amp;nbsp; &lt;/span&gt;&lt;span style=&quot;color: #66d9ef;font-style: italic;&quot;&gt;int&lt;/span&gt;&lt;span style=&quot;color: #f8f8f2;&quot;&gt; &lt;/span&gt;&lt;span style=&quot;color: #f8f8f2;&quot;&gt;right&lt;/span&gt;&lt;span style=&quot;color: #f8f8f2;&quot;&gt; &lt;/span&gt;&lt;span style=&quot;color: #f92672;&quot;&gt;=&lt;/span&gt;&lt;span style=&quot;color: #f8f8f2;&quot;&gt; &lt;/span&gt;&lt;span style=&quot;color: #fd971f;font-style: italic;&quot;&gt;mid&lt;/span&gt;&lt;span style=&quot;color: #f92672;&quot;&gt;+&lt;/span&gt;&lt;span style=&quot;color: #ae81ff;&quot;&gt;1&lt;/span&gt;&lt;span style=&quot;color: #f8f8f2;&quot;&gt;;&lt;/span&gt;&lt;/div&gt;&lt;br&gt;&lt;br&gt;&lt;div&gt;&lt;span style=&quot;color: #f8f8f2;&quot;&gt;&amp;nbsp; &amp;nbsp; &lt;/span&gt;&lt;span style=&quot;color: #f92672;&quot;&gt;while&lt;/span&gt;&lt;span style=&quot;color: #f8f8f2;&quot;&gt;(&lt;/span&gt;&lt;span style=&quot;color: #f8f8f2;&quot;&gt;left&lt;/span&gt;&lt;span style=&quot;color: #f8f8f2;&quot;&gt; &lt;/span&gt;&lt;span style=&quot;color: #f92672;&quot;&gt;&amp;lt;=&lt;/span&gt;&lt;span style=&quot;color: #f8f8f2;&quot;&gt; &lt;/span&gt;&lt;span style=&quot;color: #fd971f;font-style: italic;&quot;&gt;mid&lt;/span&gt;&lt;span style=&quot;color: #f8f8f2;&quot;&gt; &lt;/span&gt;&lt;span style=&quot;color: #f92672;&quot;&gt;&amp;amp;&amp;amp;&lt;/span&gt;&lt;span style=&quot;color: #f8f8f2;&quot;&gt; &lt;/span&gt;&lt;span style=&quot;color: #f8f8f2;&quot;&gt;right&lt;/span&gt;&lt;span style=&quot;color: #f8f8f2;&quot;&gt; &lt;/span&gt;&lt;span style=&quot;color: #f92672;&quot;&gt;&amp;lt;=&lt;/span&gt;&lt;span style=&quot;color: #f8f8f2;&quot;&gt; &lt;/span&gt;&lt;span style=&quot;color: #fd971f;font-style: italic;&quot;&gt;high&lt;/span&gt;&lt;span style=&quot;color: #f8f8f2;&quot;&gt;)&lt;/span&gt;&lt;/div&gt;&lt;div&gt;&lt;span style=&quot;color: #f8f8f2;&quot;&gt;&amp;nbsp; &amp;nbsp; {&lt;/span&gt;&lt;/div&gt;&lt;div&gt;&lt;span style=&quot;color: #f8f8f2;&quot;&gt;&amp;nbsp; &amp;nbsp; &amp;nbsp; &amp;nbsp; &lt;/span&gt;&lt;span style=&quot;color: #f92672;&quot;&gt;if&lt;/span&gt;&lt;span style=&quot;color: #f8f8f2;&quot;&gt;(&lt;/span&gt;&lt;span style=&quot;color: #fd971f;font-style: italic;&quot;&gt;a&lt;/span&gt;&lt;span style=&quot;color: #a6e22e;&quot;&gt;[&lt;/span&gt;&lt;span style=&quot;color: #f8f8f2;&quot;&gt;left&lt;/span&gt;&lt;span style=&quot;color: #a6e22e;&quot;&gt;]&lt;/span&gt;&lt;span style=&quot;color: #f8f8f2;&quot;&gt; &lt;/span&gt;&lt;span style=&quot;color: #f92672;&quot;&gt;&amp;lt;=&lt;/span&gt;&lt;span style=&quot;color: #f8f8f2;&quot;&gt; &lt;/span&gt;&lt;span style=&quot;color: #fd971f;font-style: italic;&quot;&gt;a&lt;/span&gt;&lt;span style=&quot;color: #a6e22e;&quot;&gt;[&lt;/span&gt;&lt;span style=&quot;color: #f8f8f2;&quot;&gt;right&lt;/span&gt;&lt;span style=&quot;color: #a6e22e;&quot;&gt;]&lt;/span&gt;&lt;span style=&quot;color: #f8f8f2;&quot;&gt;)&lt;/span&gt;&lt;/div&gt;&lt;div&gt;&lt;span style=&quot;color: #f8f8f2;&quot;&gt;&amp;nbsp; &amp;nbsp; &amp;nbsp; &amp;nbsp; {&lt;/span&gt;&lt;/div&gt;&lt;div&gt;&lt;span style=&quot;color: #f8f8f2;&quot;&gt;&amp;nbsp; &amp;nbsp; &amp;nbsp; &amp;nbsp; &amp;nbsp; &amp;nbsp; &lt;/span&gt;&lt;span style=&quot;color: #f8f8f2;&quot;&gt;temp&lt;/span&gt;&lt;span style=&quot;color: #f8f8f2;&quot;&gt;.&lt;/span&gt;&lt;span style=&quot;color: #a6e22e;&quot;&gt;push_back&lt;/span&gt;&lt;span style=&quot;color: #f8f8f2;&quot;&gt;(&lt;/span&gt;&lt;span style=&quot;color: #fd971f;font-style: italic;&quot;&gt;a&lt;/span&gt;&lt;span style=&quot;color: #a6e22e;&quot;&gt;[&lt;/span&gt;&lt;span style=&quot;color: #f8f8f2;&quot;&gt;left&lt;/span&gt;&lt;span style=&quot;color: #a6e22e;&quot;&gt;]&lt;/span&gt;&lt;span style=&quot;color: #f8f8f2;&quot;&gt;);&lt;/span&gt;&lt;/div&gt;&lt;div&gt;&lt;span style=&quot;color: #f8f8f2;&quot;&gt;&amp;nbsp; &amp;nbsp; &amp;nbsp; &amp;nbsp; &amp;nbsp; &amp;nbsp; &lt;/span&gt;&lt;span style=&quot;color: #f8f8f2;&quot;&gt;left&lt;/span&gt;&lt;span style=&quot;color: #f92672;&quot;&gt;++&lt;/span&gt;&lt;span style=&quot;color: #f8f8f2;&quot;&gt;;&lt;/span&gt;&lt;/div&gt;&lt;div&gt;&lt;span style=&quot;color: #f8f8f2;&quot;&gt;&amp;nbsp; &amp;nbsp; &amp;nbsp; &amp;nbsp; }&lt;/span&gt;&lt;/div&gt;&lt;div&gt;&lt;span style=&quot;color: #f8f8f2;&quot;&gt;&amp;nbsp; &amp;nbsp; &amp;nbsp;&lt;/span&gt;&lt;span style=&quot;color: #f92672;&quot;&gt;else&lt;/span&gt;&lt;span style=&quot;color: #f8f8f2;&quot;&gt;{&lt;/span&gt;&lt;/div&gt;&lt;div&gt;&lt;span style=&quot;color: #f8f8f2;&quot;&gt;&amp;nbsp; &amp;nbsp; &amp;nbsp; &amp;nbsp;&lt;/span&gt;&lt;span style=&quot;color: #f8f8f2;&quot;&gt;temp&lt;/span&gt;&lt;span style=&quot;color: #f8f8f2;&quot;&gt;.&lt;/span&gt;&lt;span style=&quot;color: #a6e22e;&quot;&gt;push_back&lt;/span&gt;&lt;span style=&quot;color: #f8f8f2;&quot;&gt;(&lt;/span&gt;&lt;span style=&quot;color: #fd971f;font-style: italic;&quot;&gt;a&lt;/span&gt;&lt;span style=&quot;color: #a6e22e;&quot;&gt;[&lt;/span&gt;&lt;span style=&quot;color: #f8f8f2;&quot;&gt;right&lt;/span&gt;&lt;span style=&quot;color: #a6e22e;&quot;&gt;]&lt;/span&gt;&lt;span style=&quot;color: #f8f8f2;&quot;&gt;);&lt;/span&gt;&lt;/div&gt;&lt;div&gt;&lt;span style=&quot;color: #f8f8f2;&quot;&gt;&amp;nbsp; &amp;nbsp; &amp;nbsp; &amp;nbsp;&lt;/span&gt;&lt;span style=&quot;color: #f8f8f2;&quot;&gt;right&lt;/span&gt;&lt;span style=&quot;color: #f92672;&quot;&gt;++&lt;/span&gt;&lt;span style=&quot;color: #f8f8f2;&quot;&gt;; &lt;/span&gt;&lt;/div&gt;&lt;div&gt;&lt;span style=&quot;color: #f8f8f2;&quot;&gt;&amp;nbsp; &amp;nbsp; &amp;nbsp; &amp;nbsp; }&lt;/span&gt;&lt;/div&gt;&lt;div&gt;&lt;span style=&quot;color: #f8f8f2;&quot;&gt;&amp;nbsp; &amp;nbsp; }&lt;/span&gt;&lt;/div&gt;&lt;div&gt;&lt;span style=&quot;color: #f8f8f2;&quot;&gt;&amp;nbsp; &lt;/span&gt;&lt;/div&gt;&lt;br&gt;&lt;div&gt;&lt;span style=&quot;color: #f8f8f2;&quot;&gt;&amp;nbsp; &amp;nbsp; &lt;/span&gt;&lt;span style=&quot;color: #f92672;&quot;&gt;while&lt;/span&gt;&lt;span style=&quot;color: #f8f8f2;&quot;&gt;(&lt;/span&gt;&lt;span style=&quot;color: #f8f8f2;&quot;&gt;left&lt;/span&gt;&lt;span style=&quot;color: #f8f8f2;&quot;&gt; &lt;/span&gt;&lt;span style=&quot;color: #f92672;&quot;&gt;&amp;lt;=&lt;/span&gt;&lt;span style=&quot;color: #f8f8f2;&quot;&gt; &lt;/span&gt;&lt;span style=&quot;color: #fd971f;font-style: italic;&quot;&gt;mid&lt;/span&gt;&lt;span style=&quot;color: #f8f8f2;&quot;&gt;)&lt;/span&gt;&lt;/div&gt;&lt;div&gt;&lt;span style=&quot;color: #f8f8f2;&quot;&gt;&amp;nbsp; &amp;nbsp; {&lt;/span&gt;&lt;/div&gt;&lt;div&gt;&lt;span style=&quot;color: #f8f8f2;&quot;&gt;&amp;nbsp; &amp;nbsp; &amp;nbsp; &amp;nbsp; &lt;/span&gt;&lt;span style=&quot;color: #f8f8f2;&quot;&gt;temp&lt;/span&gt;&lt;span style=&quot;color: #f8f8f2;&quot;&gt;.&lt;/span&gt;&lt;span style=&quot;color: #a6e22e;&quot;&gt;push_back&lt;/span&gt;&lt;span style=&quot;color: #f8f8f2;&quot;&gt;(&lt;/span&gt;&lt;span style=&quot;color: #fd971f;font-style: italic;&quot;&gt;a&lt;/span&gt;&lt;span style=&quot;color: #a6e22e;&quot;&gt;[&lt;/span&gt;&lt;span style=&quot;color: #f8f8f2;&quot;&gt;left&lt;/span&gt;&lt;span style=&quot;color: #a6e22e;&quot;&gt;]&lt;/span&gt;&lt;span style=&quot;color: #f8f8f2;&quot;&gt;);&lt;/span&gt;&lt;/div&gt;&lt;div&gt;&lt;span style=&quot;color: #f8f8f2;&quot;&gt;&amp;nbsp; &amp;nbsp; &amp;nbsp; &amp;nbsp; &lt;/span&gt;&lt;span style=&quot;color: #f8f8f2;&quot;&gt;left&lt;/span&gt;&lt;span style=&quot;color: #f92672;&quot;&gt;++&lt;/span&gt;&lt;span style=&quot;color: #f8f8f2;&quot;&gt;;&lt;/span&gt;&lt;/div&gt;&lt;div&gt;&lt;span style=&quot;color: #f8f8f2;&quot;&gt;&amp;nbsp; &amp;nbsp; }&lt;/span&gt;&lt;/div&gt;&lt;br&gt;&lt;div&gt;&lt;span style=&quot;color: #f8f8f2;&quot;&gt;&amp;nbsp; &amp;nbsp; &lt;/span&gt;&lt;span style=&quot;color: #f92672;&quot;&gt;while&lt;/span&gt;&lt;span style=&quot;color: #f8f8f2;&quot;&gt;(&lt;/span&gt;&lt;span style=&quot;color: #f8f8f2;&quot;&gt;right&lt;/span&gt;&lt;span style=&quot;color: #f8f8f2;&quot;&gt; &lt;/span&gt;&lt;span style=&quot;color: #f92672;&quot;&gt;&amp;lt;=&lt;/span&gt;&lt;span style=&quot;color: #f8f8f2;&quot;&gt; &lt;/span&gt;&lt;span style=&quot;color: #fd971f;font-style: italic;&quot;&gt;high&lt;/span&gt;&lt;span style=&quot;color: #f8f8f2;&quot;&gt;)&lt;/span&gt;&lt;/div&gt;&lt;div&gt;&lt;span style=&quot;color: #f8f8f2;&quot;&gt;&amp;nbsp; &amp;nbsp; {&lt;/span&gt;&lt;/div&gt;&lt;div&gt;&lt;span style=&quot;color: #f8f8f2;&quot;&gt;&amp;nbsp; &amp;nbsp; &amp;nbsp; &amp;nbsp; &lt;/span&gt;&lt;span style=&quot;color: #f8f8f2;&quot;&gt;temp&lt;/span&gt;&lt;span style=&quot;color: #f8f8f2;&quot;&gt;.&lt;/span&gt;&lt;span style=&quot;color: #a6e22e;&quot;&gt;push_back&lt;/span&gt;&lt;span style=&quot;color: #f8f8f2;&quot;&gt;(&lt;/span&gt;&lt;span style=&quot;color: #fd971f;font-style: italic;&quot;&gt;a&lt;/span&gt;&lt;span style=&quot;color: #a6e22e;&quot;&gt;[&lt;/span&gt;&lt;span style=&quot;color: #f8f8f2;&quot;&gt;right&lt;/span&gt;&lt;span style=&quot;color: #a6e22e;&quot;&gt;]&lt;/span&gt;&lt;span style=&quot;color: #f8f8f2;&quot;&gt;);&lt;/span&gt;&lt;/div&gt;&lt;div&gt;&lt;span style=&quot;color: #f8f8f2;&quot;&gt;&amp;nbsp; &amp;nbsp; &amp;nbsp; &amp;nbsp; &lt;/span&gt;&lt;span style=&quot;color: #f8f8f2;&quot;&gt;right&lt;/span&gt;&lt;span style=&quot;color: #f92672;&quot;&gt;++&lt;/span&gt;&lt;span style=&quot;color: #f8f8f2;&quot;&gt;;&lt;/span&gt;&lt;/div&gt;&lt;div&gt;&lt;span style=&quot;color: #f8f8f2;&quot;&gt;&amp;nbsp; &amp;nbsp; }&lt;/span&gt;&lt;/div&gt;&lt;br&gt;&lt;br&gt;&lt;div&gt;&lt;span style=&quot;color: #f8f8f2;&quot;&gt;&amp;nbsp; &amp;nbsp; &lt;/span&gt;&lt;span style=&quot;color: #f92672;&quot;&gt;for&lt;/span&gt;&lt;span style=&quot;color: #f8f8f2;&quot;&gt;(&lt;/span&gt;&lt;span style=&quot;color: #66d9ef;font-style: italic;&quot;&gt;int&lt;/span&gt;&lt;span style=&quot;color: #f8f8f2;&quot;&gt; &lt;/span&gt;&lt;span style=&quot;color: #f8f8f2;&quot;&gt;i&lt;/span&gt;&lt;span style=&quot;color: #f92672;&quot;&gt;=&lt;/span&gt;&lt;span style=&quot;color: #fd971f;font-style: italic;&quot;&gt;low&lt;/span&gt;&lt;span style=&quot;color: #f8f8f2;&quot;&gt;; &lt;/span&gt;&lt;span style=&quot;color: #f8f8f2;&quot;&gt;i&lt;/span&gt;&lt;span style=&quot;color: #f92672;&quot;&gt;&amp;lt;=&lt;/span&gt;&lt;span style=&quot;color: #fd971f;font-style: italic;&quot;&gt;high&lt;/span&gt;&lt;span style=&quot;color: #f8f8f2;&quot;&gt;; &lt;/span&gt;&lt;span style=&quot;color: #f8f8f2;&quot;&gt;i&lt;/span&gt;&lt;span style=&quot;color: #f92672;&quot;&gt;++&lt;/span&gt;&lt;span style=&quot;color: #f8f8f2;&quot;&gt;)&lt;/span&gt;&lt;/div&gt;&lt;div&gt;&lt;span style=&quot;color: #f8f8f2;&quot;&gt;&amp;nbsp; &amp;nbsp; {&lt;/span&gt;&lt;/div&gt;&lt;div&gt;&lt;span style=&quot;color: #f8f8f2;&quot;&gt;&amp;nbsp; &amp;nbsp; &amp;nbsp; &amp;nbsp; &lt;/span&gt;&lt;span style=&quot;color: #fd971f;font-style: italic;&quot;&gt;a&lt;/span&gt;&lt;span style=&quot;color: #a6e22e;&quot;&gt;[&lt;/span&gt;&lt;span style=&quot;color: #f8f8f2;&quot;&gt;i&lt;/span&gt;&lt;span style=&quot;color: #a6e22e;&quot;&gt;]&lt;/span&gt;&lt;span style=&quot;color: #f8f8f2;&quot;&gt; &lt;/span&gt;&lt;span style=&quot;color: #f92672;&quot;&gt;=&lt;/span&gt;&lt;span style=&quot;color: #f8f8f2;&quot;&gt; &lt;/span&gt;&lt;span style=&quot;color: #f8f8f2;&quot;&gt;temp&lt;/span&gt;&lt;span style=&quot;color: #a6e22e;&quot;&gt;[&lt;/span&gt;&lt;span style=&quot;color: #f8f8f2;&quot;&gt;i&lt;/span&gt;&lt;span style=&quot;color: #f92672;&quot;&gt;-&lt;/span&gt;&lt;span style=&quot;color: #fd971f;font-style: italic;&quot;&gt;low&lt;/span&gt;&lt;span style=&quot;color: #a6e22e;&quot;&gt;]&lt;/span&gt;&lt;span style=&quot;color: #f8f8f2;&quot;&gt;;&lt;/span&gt;&lt;/div&gt;&lt;div&gt;&lt;span style=&quot;color: #f8f8f2;&quot;&gt;&amp;nbsp; &amp;nbsp; }&lt;/span&gt;&lt;/div&gt;&lt;br&gt;&lt;br&gt;&lt;div&gt;&lt;span style=&quot;color: #f8f8f2;&quot;&gt;&amp;nbsp; &amp;nbsp; &amp;nbsp; &amp;nbsp;&lt;/span&gt;&lt;/div&gt;&lt;br&gt;&lt;div&gt;&lt;span style=&quot;color: #f8f8f2;&quot;&gt;}&lt;/span&gt;&lt;/div&gt;&lt;/div&gt;" style="text;whiteSpace=wrap;html=1;" vertex="1" parent="1">
          <mxGeometry x="730" y="1490" width="450" height="840" as="geometry" />
        </mxCell>
      </root>
    </mxGraphModel>
  </diagram>
</mxfile>
